<svg width="16" height="15" viewBox="0 0 16 15" fill="none" xmlns="http://www.w3.org/2000/svg">
<path d="M5.41192 13.8462H3.38462C2.61957 13.8462 1.88585 13.5422 1.34488 13.0013C0.803914 12.4603 0.5 11.7266 0.5 10.9615V4.61538H6.65808C5.82451 5.20053 5.14422 5.97794 4.67483 6.88177C4.20544 7.78561 3.96077 8.78924 3.96154 9.80769C3.96154 11.3423 4.50615 12.75 5.41192 13.8462ZM14.3462 3.46154V2.88462C14.3462 2.11957 14.0422 1.38585 13.5013 0.844884C12.9603 0.303914 12.2266 0 11.4615 0H3.38462C2.61957 0 1.88585 0.303914 1.34488 0.844884C0.803914 1.38585 0.5 2.11957 0.5 2.88462V3.46154H14.3462ZM9.58654 7.5C9.58654 7.30874 9.66252 7.12531 9.79776 6.99007C9.933 6.85482 10.1164 6.77885 10.3077 6.77885C10.499 6.77885 10.6824 6.85482 10.8176 6.99007C10.9529 7.12531 11.0288 7.30874 11.0288 7.5C11.0288 7.69126 10.9529 7.87469 10.8176 8.00993C10.6824 8.14518 10.499 8.22115 10.3077 8.22115C10.1164 8.22115 9.933 8.14518 9.79776 8.00993C9.66252 7.87469 9.58654 7.69126 9.58654 7.5ZM10.8846 12.1154C10.8846 12.2684 10.8238 12.4151 10.7156 12.5233C10.6074 12.6315 10.4607 12.6923 10.3077 12.6923C10.1547 12.6923 10.0079 12.6315 9.89975 12.5233C9.79155 12.4151 9.73077 12.2684 9.73077 12.1154V9.80769C9.73077 9.65468 9.79155 9.50794 9.89975 9.39975C10.0079 9.29155 10.1547 9.23077 10.3077 9.23077C10.4607 9.23077 10.6074 9.29155 10.7156 9.39975C10.8238 9.50794 10.8846 9.65468 10.8846 9.80769V12.1154ZM5.11538 9.80769C5.11538 9.12583 5.24969 8.45064 5.51063 7.82068C5.77156 7.19072 6.15403 6.61833 6.63618 6.13618C7.11833 5.65403 7.69072 5.27156 8.32068 5.01063C8.95064 4.74969 9.62583 4.61538 10.3077 4.61538C10.9896 4.61538 11.6647 4.74969 12.2947 5.01063C12.9247 5.27156 13.4971 5.65403 13.9792 6.13618C14.4614 6.61833 14.8438 7.19072 15.1048 7.82068C15.3657 8.45064 15.5 9.12583 15.5 9.80769C15.5 11.1848 14.953 12.5055 13.9792 13.4792C13.0055 14.453 11.6848 15 10.3077 15C8.93061 15 7.60992 14.453 6.63618 13.4792C5.66243 12.5055 5.11538 11.1848 5.11538 9.80769ZM6.26923 9.80769C6.26923 10.8788 6.69471 11.906 7.45207 12.6633C8.20943 13.4207 9.23663 13.8462 10.3077 13.8462C11.3788 13.8462 12.406 13.4207 13.1633 12.6633C13.9207 11.906 14.3462 10.8788 14.3462 9.80769C14.3462 8.73663 13.9207 7.70943 13.1633 6.95207C12.406 6.19471 11.3788 5.76923 10.3077 5.76923C9.23663 5.76923 8.20943 6.19471 7.45207 6.95207C6.69471 7.70943 6.26923 8.73663 6.26923 9.80769Z" fill="white"/>
</svg>
