<svg width="22" height="22" viewBox="0 0 22 22" fill="none" xmlns="http://www.w3.org/2000/svg">
<path d="M11 0C4.92545 0 0 4.92545 0 11C0 17.0746 4.92545 22 11 22C17.0746 22 22 17.0746 22 11C22 4.92545 17.0746 0 11 0ZM15.0612 15.179L13.4406 15.1717L11 12.2621L8.56183 15.1692L6.93884 15.1766C6.8308 15.1766 6.74241 15.0906 6.74241 14.9801C6.74241 14.9335 6.7596 14.8893 6.78906 14.8525L9.98348 11.0467L6.78906 7.2433C6.75939 7.20732 6.74293 7.16226 6.74241 7.11562C6.74241 7.00759 6.8308 6.9192 6.93884 6.9192L8.56183 6.92656L11 9.83616L13.4382 6.92902L15.0587 6.92165C15.1667 6.92165 15.2551 7.00759 15.2551 7.11808C15.2551 7.16473 15.2379 7.20893 15.2085 7.24576L12.019 11.0491L15.2109 14.8549C15.2404 14.8917 15.2576 14.9359 15.2576 14.9826C15.2576 15.0906 15.1692 15.179 15.0612 15.179Z" fill="white"/>
</svg>
