<svg width="37" height="29" viewBox="0 0 37 29" fill="none" xmlns="http://www.w3.org/2000/svg">
<path d="M31.3123 2.59492C29.0173 1.52166 26.5574 0.728375 23.985 0.277294C23.9621 0.272733 23.9383 0.275672 23.9171 0.285705C23.8959 0.295737 23.8782 0.312367 23.8665 0.33329C23.5515 0.907253 23.2005 1.65543 22.9545 2.2465C20.2262 1.82378 17.4525 1.82378 14.7242 2.2465C14.4502 1.59144 14.1413 0.952709 13.7988 0.33329C13.7871 0.312109 13.7696 0.295103 13.7484 0.284543C13.7272 0.273982 13.7035 0.270368 13.6803 0.274183C11.1093 0.725264 8.64941 1.51855 6.35298 2.59336C6.33322 2.60196 6.31647 2.61661 6.30498 2.63536C1.63711 9.75156 0.357649 16.692 0.986131 23.5453C0.98788 23.5621 0.992904 23.5783 1.0009 23.5931C1.00889 23.6078 1.01969 23.6206 1.03263 23.6309C3.75714 25.6878 6.79597 27.2548 10.0219 28.2661C10.0444 28.2733 10.0684 28.2733 10.0909 28.2661C10.1134 28.2589 10.1332 28.2448 10.1479 28.2257C10.842 27.263 11.4572 26.2416 11.9868 25.1723C11.9942 25.1577 11.9984 25.1416 11.9992 25.1252C12.0001 25.1087 11.9975 25.0922 11.9917 25.0769C11.9858 25.0616 11.9769 25.0477 11.9654 25.0362C11.954 25.0248 11.9403 25.016 11.9253 25.0106C10.9563 24.6322 10.0175 24.1755 9.1174 23.6449C9.10122 23.6353 9.08759 23.6217 9.07773 23.6053C9.06787 23.5889 9.06209 23.5703 9.0609 23.551C9.05971 23.5317 9.06315 23.5125 9.07092 23.4949C9.07868 23.4774 9.09053 23.4621 9.1054 23.4504C9.29439 23.3058 9.48339 23.1549 9.66338 23.004C9.67958 22.9905 9.6991 22.9818 9.71975 22.9791C9.74041 22.9763 9.7614 22.9796 9.78038 22.9885C15.6707 25.7323 22.05 25.7323 27.8714 22.9885C27.8904 22.9791 27.9116 22.9754 27.9325 22.9778C27.9535 22.9803 27.9733 22.9889 27.9898 23.0025C28.1698 23.1549 28.3573 23.3058 28.5478 23.4504C28.5628 23.4618 28.5749 23.4769 28.5829 23.4943C28.5909 23.5117 28.5946 23.5309 28.5938 23.5502C28.5929 23.5694 28.5874 23.5882 28.5778 23.6047C28.5682 23.6212 28.5548 23.635 28.5388 23.6449C27.6419 24.1799 26.7089 24.6326 25.7294 25.009C25.7144 25.0147 25.7007 25.0236 25.6892 25.0352C25.6778 25.0468 25.6688 25.0608 25.663 25.0762C25.6572 25.0917 25.6546 25.1083 25.6555 25.1248C25.6563 25.1414 25.6606 25.1576 25.6679 25.1723C26.2079 26.2409 26.8259 27.2582 27.5054 28.2241C27.5195 28.2439 27.5392 28.2588 27.5617 28.2666C27.5843 28.2744 27.6086 28.2747 27.6314 28.2677C30.8628 27.2592 33.9066 25.6915 36.6341 23.6309C36.6474 23.6212 36.6586 23.6087 36.6669 23.5943C36.6751 23.5798 36.6803 23.5636 36.6821 23.5469C37.4321 15.6234 35.4251 8.73896 31.3588 2.63847C31.3488 2.61865 31.3323 2.60319 31.3123 2.59492ZM12.8673 19.372C11.0943 19.372 9.63188 17.7093 9.63188 15.6701C9.63188 13.6293 11.0658 11.9681 12.8673 11.9681C14.6822 11.9681 16.1312 13.6433 16.1027 15.6701C16.1027 17.7108 14.6687 19.372 12.8673 19.372ZM24.8294 19.372C23.055 19.372 21.594 17.7093 21.594 15.6701C21.594 13.6293 23.0265 11.9681 24.8294 11.9681C26.6444 11.9681 28.0933 13.6433 28.0648 15.6701C28.0648 17.7108 26.6459 19.372 24.8294 19.372Z" fill="white"/>
</svg>
