<svg width="43" height="61" viewBox="0 0 43 61" fill="none" xmlns="http://www.w3.org/2000/svg">
<g clip-path="url(#clip0_412_651)">
<path d="M42.3053 34.1344L21.5385 60.1508V45.489L42.3053 34.1344ZM31.2989 43.2791L24.6324 46.9126V51.616L31.2989 43.2793V43.2791Z" fill="white"/>
<path d="M0.7714 34.1344L21.5383 60.1508V45.489L0.7714 34.1344ZM11.7778 43.2791L18.4443 46.9126V51.616L11.7778 43.2793V43.2791Z" fill="white"/>
<path d="M24.1729 22.2396L37.9269 28.874L38.4145 30.165L36.7768 31.4032L24.1729 25.3107V22.2396Z" fill="#D9D9D9"/>
<path d="M18.9131 22.2396L5.15909 28.874L4.67155 30.165L6.30921 31.4032L18.9131 25.3107V22.2396Z" fill="#D9D9D9"/>
<path d="M21.5385 0.178955L42.3053 30.9803L21.5385 42.307V0.178955ZM24.6055 10.0596V37.5602L38.1724 30.1648L24.6055 10.0594V10.0596Z" fill="#D9D9D9"/>
<path d="M21.5383 0.178955L0.7714 30.9803L21.5383 42.307V0.178955ZM18.4713 10.0596V37.5602L4.90433 30.1649L18.4713 10.0596Z" fill="white"/>
</g>
<defs>
<clipPath id="clip0_412_651">
<rect width="41.5385" height="60" fill="white" transform="translate(0.76923 0.178955)"/>
</clipPath>
</defs>
</svg>
