<svg width="34" height="32" viewBox="0 0 34 32" fill="none" xmlns="http://www.w3.org/2000/svg">
<path d="M17 0C7.61317 0 0 7.16533 0 16C0 24.8347 7.61317 32 17 32C26.3868 32 34 24.8347 34 16C34 7.16533 26.3911 0 17 0ZM8.38667 16.5373L8.45892 16.4293L12.8832 9.91733C12.898 9.89593 12.9186 9.87866 12.943 9.86733C12.9673 9.85601 12.9944 9.85104 13.0215 9.85294C13.0486 9.85485 13.0746 9.86357 13.0969 9.87818C13.1191 9.89279 13.1368 9.91276 13.1481 9.936C13.8847 11.4947 14.5251 13.4333 14.2248 14.64C14.1001 15.136 13.7502 15.808 13.3549 16.4293C13.3042 16.5202 13.2489 16.6088 13.1892 16.6947C13.1749 16.7138 13.1557 16.7293 13.1335 16.7398C13.1112 16.7503 13.0865 16.7554 13.0617 16.7547H8.51842C8.4913 16.7551 8.46457 16.7485 8.44108 16.7358C8.41759 16.723 8.3982 16.7045 8.38498 16.6822C8.37176 16.66 8.3652 16.6347 8.36599 16.6092C8.36679 16.5837 8.37491 16.5589 8.3895 16.5373H8.38667ZM28.0982 18.7773C28.0985 18.8058 28.09 18.8337 28.0736 18.8577C28.0572 18.8816 28.0338 18.9005 28.0061 18.912C27.6618 19.0493 26.4902 19.5587 26.0029 20.1947C24.7591 21.824 23.8099 24.1547 21.6849 24.1547H12.8251C12.077 24.1536 11.3365 24.0138 10.6459 23.7433C9.95528 23.4728 9.32806 23.0768 8.80009 22.5781C8.27213 22.0793 7.85377 21.4875 7.56892 20.8365C7.28407 20.1855 7.13832 19.488 7.14 18.784V18.688C7.14 18.6107 7.208 18.5467 7.293 18.5467H12.2301C12.3293 18.5467 12.4001 18.6307 12.393 18.7227C12.3562 19.024 12.4171 19.3347 12.5701 19.616C12.8619 20.176 13.4711 20.5253 14.127 20.5253H16.5722V18.7293H14.1525C14.1241 18.729 14.0964 18.7215 14.0723 18.7075C14.0482 18.6935 14.0286 18.6735 14.0156 18.6498C14.0026 18.626 13.9968 18.5994 13.9987 18.5728C14.0006 18.5462 14.0102 18.5205 14.0264 18.4987L14.1157 18.3787C14.3423 18.0707 14.6696 17.5973 14.9954 17.056C15.2164 16.6907 15.4318 16.3013 15.6046 15.9093C15.6386 15.84 15.6655 15.7667 15.6967 15.696C15.7434 15.5707 15.7916 15.4533 15.8256 15.3373C15.8589 15.239 15.8897 15.1398 15.9177 15.04C15.9984 14.7067 16.0324 14.3547 16.0324 13.9907C16.0324 13.8467 16.0268 13.696 16.0126 13.5547C16.0055 13.3987 15.9843 13.2413 15.9644 13.0853C15.9486 12.9458 15.9259 12.8069 15.8964 12.6693C15.8583 12.4598 15.812 12.2517 15.7576 12.0453L15.7378 11.9653C15.6952 11.8213 15.6584 11.6853 15.6102 11.5427C15.4754 11.1045 15.3203 10.6721 15.1456 10.2467C15.0847 10.0866 15.0176 9.92874 14.9444 9.77333C14.8424 9.536 14.7376 9.32133 14.6427 9.12C14.5954 9.03374 14.551 8.94615 14.5095 8.85733C14.4634 8.76152 14.4148 8.66682 14.3636 8.57333C14.3296 8.50267 14.2885 8.43467 14.2616 8.37067L13.9627 7.85333C13.9216 7.78267 13.9896 7.696 14.0717 7.71867L15.9417 8.19467H15.9559L16.201 8.26133L16.473 8.33333L16.5722 8.35867V7.31467C16.5722 6.80933 17 6.4 17.5341 6.4C17.6602 6.39968 17.7851 6.42338 17.9012 6.46966C18.0173 6.51595 18.1223 6.58387 18.2098 6.66933C18.3907 6.84104 18.4925 7.07287 18.4932 7.31467V8.86667L18.6929 8.91867C18.7071 8.92533 18.7241 8.932 18.7368 8.94133C18.785 8.97333 18.8558 9.024 18.9451 9.088C19.0159 9.13867 19.091 9.20267 19.1788 9.27067C19.4586 9.48517 19.7298 9.70933 19.992 9.94267C20.2952 10.208 20.6352 10.5187 20.961 10.864C21.0531 10.9627 21.1409 11.0587 21.233 11.1653C21.3208 11.2707 21.42 11.3733 21.5022 11.4747C21.6141 11.6133 21.7288 11.7573 21.8351 11.9067C21.8818 11.9773 21.9399 12.0507 21.9838 12.1213C22.1198 12.3107 22.236 12.5053 22.3479 12.7013C22.3961 12.7907 22.4428 12.8893 22.4839 12.9853C22.61 13.248 22.7092 13.5133 22.7701 13.7827C22.7902 13.8398 22.804 13.8988 22.8112 13.9587V13.972C22.831 14.048 22.8381 14.132 22.8452 14.2173C22.8851 14.6114 22.8338 15.009 22.695 15.3827C22.6511 15.4947 22.61 15.6093 22.5562 15.7213C22.4499 15.948 22.3281 16.1787 22.1822 16.3907C22.134 16.4707 22.0759 16.5533 22.0221 16.6333C21.9612 16.7173 21.896 16.7973 21.8422 16.8733C21.7643 16.9743 21.6825 17.0726 21.5971 17.168C21.522 17.264 21.4469 17.36 21.3619 17.4467C21.2472 17.5773 21.1352 17.7 21.0148 17.8173C20.9468 17.8947 20.8732 17.9747 20.7938 18.044C20.7202 18.124 20.6408 18.1947 20.5728 18.2587C20.4538 18.3707 20.3603 18.4547 20.2782 18.528L20.0841 18.6907C20.0571 18.7162 20.0204 18.7306 19.9821 18.7307H18.4932V20.5253H20.366C20.7839 20.5253 21.182 20.3867 21.505 20.128C21.6141 20.0387 22.0929 19.648 22.661 19.0587C22.6795 19.0386 22.7043 19.0246 22.7318 19.0187L27.9027 17.6093C27.9254 17.6032 27.9493 17.602 27.9725 17.606C27.9958 17.61 28.0177 17.619 28.0367 17.6323C28.0556 17.6456 28.071 17.6628 28.0817 17.6827C28.0924 17.7025 28.098 17.7244 28.0982 17.7467V18.7773Z" fill="white"/>
</svg>
