<svg width="188" height="61" viewBox="0 0 188 61" fill="none" xmlns="http://www.w3.org/2000/svg">
<path d="M186.696 0.663729L182.664 1.30437L183.304 5.33627L187.336 4.69563L186.696 0.663729ZM143.386 60.3363L147.418 59.6956L146.777 55.6637L142.746 56.3044L143.386 60.3363ZM184.595 2.70631L144.677 57.7063L145.486 58.2937L185.405 3.29369L184.595 2.70631Z" fill="white" fill-opacity="0.02"/>
<path d="M172.487 0.663729L168.455 1.30437L169.096 5.33627L173.128 4.69563L172.487 0.663729ZM129.178 60.3363L133.21 59.6956L132.569 55.6637L128.537 56.3044L129.178 60.3363ZM170.387 2.70631L130.469 57.7063L131.278 58.2937L171.196 3.29369L170.387 2.70631Z" fill="white" fill-opacity="0.04"/>
<path d="M158.279 0.663729L154.247 1.30437L154.888 5.33627L158.92 4.69563L158.279 0.663729ZM114.97 60.3363L119.002 59.6956L118.361 55.6637L114.329 56.3044L114.97 60.3363ZM156.179 2.70631L116.261 57.7063L117.07 58.2937L156.988 3.29369L156.179 2.70631Z" fill="white" fill-opacity="0.05"/>
<path d="M144.071 0.663729L140.039 1.30437L140.68 5.33627L144.712 4.69563L144.071 0.663729ZM100.762 60.3363L104.794 59.6956L104.153 55.6637L100.121 56.3044L100.762 60.3363ZM141.971 2.70631L102.053 57.7063L102.862 58.2937L142.78 3.29369L141.971 2.70631Z" fill="white" fill-opacity="0.06"/>
<path d="M129.863 0.663729L125.831 1.30437L126.472 5.33627L130.504 4.69563L129.863 0.663729ZM86.5534 60.3363L90.5853 59.6956L89.9447 55.6637L85.9128 56.3044L86.5534 60.3363ZM127.763 2.70631L87.8444 57.7063L88.6537 58.2937L128.572 3.29369L127.763 2.70631Z" fill="white" fill-opacity="0.07"/>
<path d="M115.655 0.663729L111.623 1.30437L112.263 5.33627L116.295 4.69563L115.655 0.663729ZM72.3451 60.3363L76.377 59.6956L75.7364 55.6637L71.7045 56.3044L72.3451 60.3363ZM113.554 2.70631L73.6361 57.7063L74.4454 58.2937L114.364 3.29369L113.554 2.70631Z" fill="#36E7FF" fill-opacity="0.08"/>
<path d="M101.447 0.663729L97.4147 1.30437L98.0554 5.33627L102.087 4.69563L101.447 0.663729ZM58.1371 60.3363L62.169 59.6956L61.5284 55.6637L57.4965 56.3044L58.1371 60.3363ZM99.3463 2.70631L59.4281 57.7063L60.2374 58.2937L100.156 3.29369L99.3463 2.70631Z" fill="#36E7FF" fill-opacity="0.09"/>
<path d="M87.2384 0.663729L83.2065 1.30437L83.8471 5.33627L87.879 4.69563L87.2384 0.663729ZM43.9289 60.3363L47.9608 59.6956L47.3201 55.6637L43.2882 56.3044L43.9289 60.3363ZM85.1381 2.70631L45.2199 57.7063L46.0292 58.2937L85.9474 3.29369L85.1381 2.70631Z" fill="#36E7FF" fill-opacity="0.1"/>
<path d="M73.0301 0.663729L68.9982 1.30437L69.6388 5.33627L73.6708 4.69563L73.0301 0.663729ZM29.7206 60.3363L33.7525 59.6956L33.1119 55.6637L29.08 56.3044L29.7206 60.3363ZM70.9298 2.70631L31.0116 57.7063L31.8209 58.2937L71.7391 3.29369L70.9298 2.70631Z" fill="#36E7FF" fill-opacity="0.1"/>
<path d="M58.8221 0.663729L54.7902 1.30437L55.4308 5.33627L59.4627 4.69563L58.8221 0.663729ZM15.5126 60.3363L19.5445 59.6956L18.9039 55.6637L14.872 56.3044L15.5126 60.3363ZM56.7218 2.70631L16.8036 57.7063L17.6129 58.2937L57.5311 3.29369L56.7218 2.70631Z" fill="#36E7FF" fill-opacity="0.1"/>
<path d="M44.6139 0.663729L40.582 1.30437L41.2226 5.33627L45.2545 4.69563L44.6139 0.663729ZM1.30437 60.3363L5.33627 59.6956L4.69563 55.6637L0.663729 56.3044L1.30437 60.3363ZM42.5136 2.70631L2.59535 57.7063L3.40465 58.2937L43.3229 3.29369L42.5136 2.70631Z" fill="#36E7FF" fill-opacity="0.1"/>
</svg>
