<svg width="185" height="61" viewBox="0 0 185 61" fill="none" xmlns="http://www.w3.org/2000/svg">
<path d="M1.32286 0.650439L5.34959 1.32283L4.6772 5.34956L0.650467 4.67717L1.32286 0.650439ZM43.9374 60.3496L39.9107 59.6772L40.5831 55.6504L44.6098 56.3228L43.9374 60.3496ZM3.40698 2.70951L42.6672 57.7095L41.8533 58.2905L2.59307 3.29049L3.40698 2.70951Z" fill="white" fill-opacity="0.02"/>
<path d="M15.297 0.650439L19.3237 1.32283L18.6513 5.34956L14.6246 4.67717L15.297 0.650439ZM57.9115 60.3496L53.8848 59.6772L54.5572 55.6504L58.5839 56.3228L57.9115 60.3496ZM17.3811 2.70951L56.6413 57.7095L55.8274 58.2905L16.5672 3.29049L17.3811 2.70951Z" fill="white" fill-opacity="0.04"/>
<path d="M29.2706 0.650439L33.2973 1.32283L32.625 5.34956L28.5982 4.67717L29.2706 0.650439ZM71.8852 60.3496L67.8584 59.6772L68.5308 55.6504L72.5576 56.3228L71.8852 60.3496ZM31.3547 2.70951L70.615 57.7095L69.8011 58.2905L30.5408 3.29049L31.3547 2.70951Z" fill="white" fill-opacity="0.05"/>
<path d="M43.2447 0.650439L47.2715 1.32283L46.5991 5.34956L42.5723 4.67717L43.2447 0.650439ZM85.8593 60.3496L81.8326 59.6772L82.505 55.6504L86.5317 56.3228L85.8593 60.3496ZM45.3289 2.70951L84.5891 57.7095L83.7752 58.2905L44.5149 3.29049L45.3289 2.70951Z" fill="white" fill-opacity="0.06"/>
<path d="M57.2189 0.650439L61.2456 1.32283L60.5732 5.34956L56.5465 4.67717L57.2189 0.650439ZM99.8334 60.3496L95.8067 59.6772L96.4791 55.6504L100.506 56.3228L99.8334 60.3496ZM59.303 2.70951L98.5632 57.7095L97.7493 58.2905L58.4891 3.29049L59.303 2.70951Z" fill="white" fill-opacity="0.07"/>
<path d="M71.1925 0.650439L75.2192 1.32283L74.5468 5.34956L70.5201 4.67717L71.1925 0.650439ZM113.807 60.3496L109.78 59.6772L110.453 55.6504L114.479 56.3228L113.807 60.3496ZM73.2766 2.70951L112.537 57.7095L111.723 58.2905L72.4627 3.29049L73.2766 2.70951Z" fill="#36E7FF" fill-opacity="0.08"/>
<path d="M85.1666 0.650439L89.1933 1.32283L88.5209 5.34956L84.4942 4.67717L85.1666 0.650439ZM127.781 60.3496L123.754 59.6772L124.427 55.6504L128.454 56.3228L127.781 60.3496ZM87.2507 2.70951L126.511 57.7095L125.697 58.2905L86.4368 3.29049L87.2507 2.70951Z" fill="#36E7FF" fill-opacity="0.09"/>
<path d="M99.1407 0.650439L103.167 1.32283L102.495 5.34956L98.4683 4.67717L99.1407 0.650439ZM141.755 60.3496L137.729 59.6772L138.401 55.6504L142.428 56.3228L141.755 60.3496ZM101.225 2.70951L140.485 57.7095L139.671 58.2905L100.411 3.29049L101.225 2.70951Z" fill="#36E7FF" fill-opacity="0.1"/>
<path d="M113.115 0.650439L117.142 1.32283L116.469 5.34956L112.442 4.67717L113.115 0.650439ZM155.729 60.3496L151.703 59.6772L152.375 55.6504L156.402 56.3228L155.729 60.3496ZM115.199 2.70951L154.459 57.7095L153.645 58.2905L114.385 3.29049L115.199 2.70951Z" fill="#36E7FF" fill-opacity="0.1"/>
<path d="M127.088 0.650439L131.115 1.32283L130.443 5.34956L126.416 4.67717L127.088 0.650439ZM169.703 60.3496L165.676 59.6772L166.349 55.6504L170.375 56.3228L169.703 60.3496ZM129.173 2.70951L168.433 57.7095L167.619 58.2905L128.359 3.29049L129.173 2.70951Z" fill="#36E7FF" fill-opacity="0.1"/>
<path d="M141.063 0.650439L145.089 1.32283L144.417 5.34956L140.39 4.67717L141.063 0.650439ZM183.677 60.3496L179.65 59.6772L180.323 55.6504L184.35 56.3228L183.677 60.3496ZM143.147 2.70951L182.407 57.7095L181.593 58.2905L142.333 3.29049L143.147 2.70951Z" fill="#36E7FF" fill-opacity="0.1"/>
</svg>
