<svg width="1255" height="811" viewBox="0 0 1255 811" fill="none" xmlns="http://www.w3.org/2000/svg">
<path fill-rule="evenodd" clip-rule="evenodd" d="M341.292 160.792C286.2 226.219 253 310.728 253 403C253 610.658 421.147 779 628.569 779C835.991 779 1004.14 610.658 1004.14 403C1004.14 310.704 970.921 226.174 915.802 160.74C915.504 160.904 915.206 161.067 914.907 161.23C969.957 226.511 1003.14 310.876 1003.14 403C1003.14 610.107 835.438 778 628.569 778C421.7 778 254 610.107 254 403C254 310.9 287.164 226.555 342.188 161.281C341.889 161.118 341.591 160.955 341.292 160.792Z" fill="url(#paint0_linear_402_3966)"/>
<path d="M163.886 41.6812L161.528 39.8271C160.518 41.1121 159.513 42.4012 158.513 43.6946L160.887 45.5291C161.882 44.2422 162.881 42.9595 163.886 41.6812Z" fill="#FF7236"/>
<path d="M135.352 81.2313L132.849 79.5778C131.948 80.9407 131.053 82.3076 130.164 83.6784L132.681 85.3112C133.566 83.9473 134.456 82.5873 135.352 81.2313Z" fill="#FF7236"/>
<path d="M110.174 123.003L107.543 121.562C106.758 122.994 105.98 124.431 105.206 125.871L107.849 127.29C108.619 125.857 109.394 124.428 110.174 123.003Z" fill="#FF7236"/>
<path d="M88.5457 166.703L85.8041 165.485C85.1402 166.98 84.4823 168.477 83.8304 169.978L86.5821 171.173C87.2306 169.68 87.8852 168.19 88.5457 166.703Z" fill="#FF7236"/>
<path d="M70.6179 212.054L67.7845 211.069C67.2479 212.611 66.7175 214.156 66.1933 215.704L69.0348 216.666C69.5564 215.126 70.084 213.589 70.6179 212.054Z" fill="#FF7236"/>
<path d="M56.5209 258.759L53.6153 258.013C53.2099 259.591 52.811 261.171 52.4183 262.754L55.3301 263.476C55.7207 261.901 56.1177 260.329 56.5209 258.759Z" fill="#FF7236"/>
<path d="M46.3656 306.435L43.408 305.932C43.1338 307.545 42.8661 309.161 42.605 310.779L45.5667 311.257C45.8265 309.647 46.0928 308.04 46.3656 306.435Z" fill="#FF7236"/>
<path d="M40.1901 354.807L37.2012 354.55C37.0615 356.175 36.9284 357.802 36.8018 359.431L39.7928 359.663C39.9187 358.043 40.0512 356.424 40.1901 354.807Z" fill="#FF7236"/>
<path d="M38.005 403.548L35.005 403.536C35.0017 404.357 35 405.178 35 406C35 406.822 35.0017 407.643 35.005 408.464L38.005 408.452C38.0017 407.635 38 406.818 38 406C38 405.182 38.0017 404.365 38.005 403.548Z" fill="#FF7236"/>
<path d="M39.7928 452.337L36.8018 452.569C36.9284 454.198 37.0615 455.825 37.2012 457.45L40.1901 457.193C40.0512 455.576 39.9187 453.957 39.7928 452.337Z" fill="#FF7236"/>
<path d="M45.5667 500.743L42.605 501.221C42.8661 502.839 43.1338 504.455 43.408 506.068L46.3656 505.565C46.0928 503.96 45.8265 502.353 45.5667 500.743Z" fill="#FF7236"/>
<path d="M55.3301 548.524L52.4183 549.246C52.8109 550.829 53.2099 552.409 53.6153 553.987L56.5209 553.241C56.1177 551.671 55.7207 550.099 55.3301 548.524Z" fill="#FF7236"/>
<path d="M69.0348 595.334L66.1933 596.296C66.7175 597.844 67.2479 599.389 67.7845 600.932L70.6179 599.946C70.0841 598.411 69.5564 596.874 69.0348 595.334Z" fill="#FF7236"/>
<path d="M86.5821 640.827L83.8304 642.022C84.4823 643.523 85.1402 645.021 85.8041 646.515L88.5457 645.297C87.8852 643.81 87.2306 642.32 86.5821 640.827Z" fill="#FF7236"/>
<path d="M107.849 684.71L105.206 686.13C105.98 687.569 106.758 689.006 107.543 690.438L110.174 688.997C109.394 687.572 108.619 686.143 107.849 684.71Z" fill="#FF7236"/>
<path d="M132.681 726.689L130.164 728.322C131.053 729.693 131.948 731.059 132.849 732.422L135.352 730.769C134.456 729.413 133.566 728.053 132.681 726.689Z" fill="#FF7236"/>
<path d="M160.887 766.471L158.513 768.305C159.513 769.599 160.518 770.888 161.528 772.173L163.886 770.319C162.881 769.041 161.882 767.758 160.887 766.471Z" fill="#FF7236"/>
<path d="M1092.11 770.319L1094.47 772.173C1095.48 770.888 1096.49 769.599 1097.49 768.306L1095.11 766.471C1094.12 767.758 1093.12 769.041 1092.11 770.319Z" fill="#FF7236"/>
<path d="M1120.65 730.769L1123.15 732.422C1124.05 731.059 1124.95 729.693 1125.84 728.322L1123.32 726.689C1122.43 728.053 1121.54 729.413 1120.65 730.769Z" fill="#FF7236"/>
<path d="M1145.83 688.997L1148.46 690.439C1149.24 689.006 1150.02 687.569 1150.79 686.13L1148.15 684.71C1147.38 686.143 1146.61 687.572 1145.83 688.997Z" fill="#FF7236"/>
<path d="M1167.45 645.297L1170.2 646.515C1170.86 645.021 1171.52 643.523 1172.17 642.022L1169.42 640.827C1168.77 642.32 1168.11 643.81 1167.45 645.297Z" fill="#FF7236"/>
<path d="M1185.38 599.946L1188.22 600.931C1188.75 599.389 1189.28 597.844 1189.81 596.296L1186.97 595.334C1186.44 596.874 1185.92 598.411 1185.38 599.946Z" fill="#FF7236"/>
<path d="M1199.48 553.241L1202.38 553.987C1202.79 552.409 1203.19 550.829 1203.58 549.246L1200.67 548.524C1200.28 550.099 1199.88 551.671 1199.48 553.241Z" fill="#FF7236"/>
<path d="M1209.63 505.565L1212.59 506.068C1212.87 504.455 1213.13 502.839 1213.4 501.221L1210.43 500.743C1210.17 502.353 1209.91 503.96 1209.63 505.565Z" fill="#FF7236"/>
<path d="M1215.81 457.193L1218.8 457.45C1218.94 455.825 1219.07 454.198 1219.2 452.569L1216.21 452.337C1216.08 453.957 1215.95 455.576 1215.81 457.193Z" fill="#FF7236"/>
<path d="M1217.99 408.452L1220.99 408.464C1221 408.171 1221 407.878 1221 407.584C1221 407.056 1221 406.528 1221 406C1221 405.178 1221 404.357 1220.99 403.536L1217.99 403.548C1218 404.365 1218 405.182 1218 406C1218 406.818 1218 407.635 1217.99 408.452Z" fill="#FF7236"/>
<path d="M1216.21 359.663L1219.2 359.431C1219.07 357.802 1218.94 356.175 1218.8 354.55L1215.81 354.807C1215.95 356.424 1216.08 358.043 1216.21 359.663Z" fill="#FF7236"/>
<path d="M1210.43 311.257L1213.4 310.779C1213.13 309.161 1212.87 307.545 1212.59 305.932L1209.63 306.435C1209.91 308.04 1210.17 309.647 1210.43 311.257Z" fill="#FF7236"/>
<path d="M1200.67 263.476L1203.58 262.754C1203.19 261.171 1202.79 259.591 1202.38 258.013L1199.48 258.759C1199.88 260.329 1200.28 261.901 1200.67 263.476Z" fill="#FF7236"/>
<path d="M1186.97 216.666L1189.81 215.704C1189.28 214.156 1188.75 212.611 1188.22 211.069L1185.38 212.054C1185.92 213.589 1186.44 215.126 1186.97 216.666Z" fill="#FF7236"/>
<path d="M1169.42 171.173L1172.17 169.978C1171.52 168.477 1170.86 166.98 1170.2 165.485L1167.45 166.703C1168.11 168.19 1168.77 169.68 1169.42 171.173Z" fill="#FF7236"/>
<path d="M1148.15 127.29L1150.79 125.871C1150.02 124.431 1149.24 122.994 1148.46 121.562L1145.83 123.003C1146.61 124.428 1147.38 125.857 1148.15 127.29Z" fill="#FF7236"/>
<path d="M1123.32 85.3112L1125.84 83.6784C1124.95 82.3076 1124.05 80.9407 1123.15 79.5778L1120.65 81.2313C1121.54 82.5873 1122.43 83.9473 1123.32 85.3112Z" fill="#FF7236"/>
<path d="M1095.11 45.5292L1097.49 43.6946C1096.49 42.4012 1095.48 41.1121 1094.47 39.8272L1092.11 41.6812C1093.12 42.9596 1094.12 44.2423 1095.11 45.5292Z" fill="#FF7236"/>
<path d="M28.4995 404.501C28.4995 252.572 84.8271 113.81 177.722 7.9917C177.943 8.24481 178.165 8.49768 178.386 8.75043C85.6982 114.38 29.4995 252.872 29.4995 404.501C29.4995 557.81 86.9507 697.689 181.481 803.75C181.258 804.001 181.035 804.252 180.812 804.503C86.0778 698.254 28.4995 558.107 28.4995 404.501Z" fill="url(#paint1_linear_402_3966)"/>
<path d="M1077.19 804.503C1171.92 698.254 1229.5 558.107 1229.5 404.501C1229.5 252.572 1173.17 113.81 1080.28 7.9917C1080.06 8.24481 1079.84 8.49774 1079.61 8.75043C1172.3 114.38 1228.5 252.872 1228.5 404.501C1228.5 557.81 1171.05 697.689 1076.52 803.75C1076.74 804.001 1076.96 804.252 1077.19 804.503Z" fill="url(#paint2_linear_402_3966)"/>
<path d="M178.475 7.33341L177.723 6.47426L176.97 7.33197C83.9215 113.326 27.4995 252.32 27.4995 404.501C27.4995 558.362 85.1743 698.743 180.066 805.168L180.813 806.007L181.56 805.167C181.782 804.916 182.005 804.666 182.228 804.416L182.821 803.75L182.228 803.085C87.8542 697.2 30.4995 557.555 30.4995 404.501C30.4995 253.124 86.6039 114.864 179.138 9.40999L179.717 8.75046L179.138 8.09091C178.917 7.83854 178.695 7.58608 178.475 7.33341ZM1076.44 805.167L1077.19 806.007L1077.93 805.168C1172.83 698.743 1230.5 558.362 1230.5 404.501C1230.5 252.32 1174.08 113.326 1081.03 7.33197L1080.28 6.4742L1079.53 7.33346C1079.3 7.58612 1079.08 7.83857 1078.86 8.09074L1078.28 8.75032L1078.86 9.40999C1171.4 114.864 1227.5 253.124 1227.5 404.501C1227.5 557.555 1170.15 697.2 1075.77 803.085L1075.18 803.75L1075.77 804.416C1075.99 804.666 1076.22 804.916 1076.44 805.167Z" stroke="#36E7FF" stroke-opacity="0.1" stroke-width="2"/>
<path d="M191 102L164.637 102C164.003 102.89 163.371 103.783 162.743 104.679H189.106C189.735 103.783 190.366 102.89 191 102Z" fill="#FFAE00" fill-opacity="0.55"/>
<path d="M181.8 115.393H155.436C154.846 116.283 154.259 117.176 153.674 118.071H180.038C180.623 117.176 181.21 116.283 181.8 115.393Z" fill="#FFAE00" fill-opacity="0.55"/>
<path d="M173.239 128.786H146.876C146.327 129.676 145.78 130.569 145.236 131.464H171.6C172.144 130.569 172.69 129.676 173.239 128.786Z" fill="#FFAE00" fill-opacity="0.55"/>
<path d="M165.274 142.179H138.91C138.399 143.069 137.891 143.962 137.385 144.857H163.749C164.255 143.962 164.763 143.069 165.274 142.179Z" fill="#FFAE00" fill-opacity="0.55"/>
<path d="M149.668 171.643H123.305C122.87 172.534 122.438 173.427 122.009 174.321H148.372C148.802 173.427 149.234 172.534 149.668 171.643Z" fill="#FFAE00" fill-opacity="0.55"/>
<path d="M143.381 185.036H117.018C116.615 185.927 116.215 186.82 115.817 187.714H142.181C142.579 186.82 142.979 185.927 143.381 185.036Z" fill="#FFAE00" fill-opacity="0.55"/>
<path d="M137.564 198.429H111.2C110.828 199.32 110.458 200.213 110.091 201.107H136.455C136.822 200.213 137.192 199.32 137.564 198.429Z" fill="#FFAE00" fill-opacity="0.55"/>
<path d="M132.196 211.821H105.832C105.49 212.713 105.149 213.606 104.811 214.5H131.175C131.513 213.606 131.853 212.713 132.196 211.821Z" fill="#FFAE00" fill-opacity="0.55"/>
<path d="M121.885 241.286H95.5219C95.2399 242.177 94.9602 243.07 94.6827 243.964H121.046C121.324 243.07 121.603 242.177 121.885 241.286Z" fill="#FFAE00" fill-opacity="0.55"/>
<path d="M117.848 254.679H91.4844C91.2286 255.57 90.9751 256.463 90.7239 257.357H117.087C117.339 256.463 117.592 255.57 117.848 254.679Z" fill="#FFAE00" fill-opacity="0.55"/>
<path d="M114.199 268.071H87.8356C87.6054 268.963 87.3773 269.856 87.1516 270.75H113.515C113.741 269.856 113.969 268.963 114.199 268.071Z" fill="#FFAE00" fill-opacity="0.55"/>
<path d="M110.929 281.464H84.5652C84.3598 282.356 84.1567 283.249 83.9557 284.143H110.319C110.52 283.249 110.723 282.356 110.929 281.464Z" fill="#FFAE00" fill-opacity="0.55"/>
<path d="M105.023 310.929H78.6591C78.5065 311.821 78.3561 312.713 78.208 313.607H104.572C104.72 312.713 104.87 311.821 105.023 310.929Z" fill="#FFAE00" fill-opacity="0.55"/>
<path d="M102.907 324.321H76.5437C76.4144 325.213 76.2873 326.106 76.1625 327H102.526C102.651 326.106 102.778 325.213 102.907 324.321Z" fill="#FFAE00" fill-opacity="0.55"/>
<path d="M101.139 337.714H74.7754C74.669 338.606 74.5648 339.499 74.4629 340.393H100.826C100.928 339.499 101.033 338.606 101.139 337.714Z" fill="#FFAE00" fill-opacity="0.55"/>
<path d="M99.7124 351.107H73.3488C73.2651 351.999 73.1835 352.892 73.1041 353.786H99.4677C99.5471 352.892 99.6287 351.999 99.7124 351.107Z" fill="#FFAE00" fill-opacity="0.55"/>
<path d="M97.7561 380.571H71.3925C71.3576 381.464 71.3249 382.356 71.2943 383.25H97.6579C97.6884 382.356 97.7212 381.464 97.7561 380.571Z" fill="#FFAE00" fill-opacity="0.55"/>
<path d="M97.3963 393.964H71.0328C71.0197 394.857 71.0088 395.749 71.0001 396.643H97.3637C97.3724 395.749 97.3833 394.857 97.3963 393.964Z" fill="#FFAE00" fill-opacity="0.55"/>
<path d="M97.3637 407.357H71.0001C71.0088 408.251 71.0197 409.143 71.0328 410.036H97.3963C97.3833 409.143 97.3724 408.251 97.3637 407.357Z" fill="#FFAE00" fill-opacity="0.55"/>
<path d="M97.6579 420.75H71.2943C71.3249 421.643 71.3576 422.536 71.3925 423.429H97.7561C97.7212 422.536 97.6884 421.643 97.6579 420.75Z" fill="#FFAE00" fill-opacity="0.55"/>
<path d="M99.4677 450.214H73.1041C73.1835 451.108 73.2651 452.001 73.3488 452.893H99.7124C99.6287 452.001 99.5471 451.108 99.4677 450.214Z" fill="#FFAE00" fill-opacity="0.55"/>
<path d="M100.826 463.607H74.4629C74.5648 464.501 74.669 465.394 74.7754 466.286H101.139C101.033 465.394 100.928 464.501 100.826 463.607Z" fill="#FFAE00" fill-opacity="0.55"/>
<path d="M102.526 477H76.1625C76.2873 477.894 76.4144 478.787 76.5437 479.679H102.907C102.778 478.787 102.651 477.894 102.526 477Z" fill="#FFAE00" fill-opacity="0.55"/>
<path d="M104.572 490.393H78.208C78.3562 491.287 78.5065 492.179 78.6591 493.071H105.023C104.87 492.179 104.72 491.287 104.572 490.393Z" fill="#FFAE00" fill-opacity="0.55"/>
<path d="M110.319 519.857H83.9557C84.1567 520.751 84.3598 521.644 84.5652 522.536H110.929C110.723 521.644 110.52 520.751 110.319 519.857Z" fill="#FFAE00" fill-opacity="0.55"/>
<path d="M113.515 533.25H87.1516C87.3774 534.144 87.6054 535.037 87.8356 535.929H114.199C113.969 535.037 113.741 534.144 113.515 533.25Z" fill="#FFAE00" fill-opacity="0.55"/>
<path d="M117.087 546.643H90.7239C90.9751 547.537 91.2286 548.43 91.4844 549.321H117.848C117.592 548.43 117.339 547.537 117.087 546.643Z" fill="#FFAE00" fill-opacity="0.55"/>
<path d="M121.046 560.036H94.6828C94.9602 560.93 95.2399 561.823 95.5219 562.714H121.885C121.603 561.823 121.324 560.93 121.046 560.036Z" fill="#FFAE00" fill-opacity="0.55"/>
<path d="M131.175 589.5H104.811C105.149 590.394 105.49 591.287 105.832 592.179H132.196C131.853 591.287 131.513 590.394 131.175 589.5Z" fill="#FFAE00" fill-opacity="0.55"/>
<path d="M136.455 602.893H110.091C110.458 603.787 110.828 604.68 111.2 605.571H137.564C137.192 604.68 136.822 603.787 136.455 602.893Z" fill="#FFAE00" fill-opacity="0.55"/>
<path d="M142.181 616.286H115.817C116.215 617.18 116.615 618.073 117.018 618.964H143.381C142.979 618.073 142.579 617.18 142.181 616.286Z" fill="#FFAE00" fill-opacity="0.55"/>
<path d="M148.372 629.679H122.009C122.438 630.573 122.87 631.466 123.305 632.357H149.669C149.234 631.466 148.802 630.573 148.372 629.679Z" fill="#FFAE00" fill-opacity="0.55"/>
<path d="M163.749 659.143H137.385C137.891 660.038 138.399 660.93 138.91 661.821H165.274C164.763 660.93 164.255 660.038 163.749 659.143Z" fill="#FFAE00" fill-opacity="0.55"/>
<path d="M171.6 672.536H145.236C145.78 673.431 146.327 674.324 146.876 675.214H173.239C172.69 674.324 172.144 673.431 171.6 672.536Z" fill="#FFAE00" fill-opacity="0.55"/>
<path d="M180.038 685.929H153.675C154.259 686.824 154.846 687.717 155.436 688.607H181.8C181.21 687.717 180.623 686.824 180.038 685.929Z" fill="#FFAE00" fill-opacity="0.55"/>
<path d="M189.106 699.321H162.743C163.371 700.217 164.003 701.11 164.637 702H191C190.366 701.11 189.735 700.217 189.106 699.321Z" fill="#FFAE00" fill-opacity="0.55"/>
<path d="M98.0358 188.092V190.668C98.0358 191.234 97.8278 191.564 97.4118 191.66C97.8278 191.778 98.0358 192.092 98.0358 192.604V195.292C98.0358 196.231 97.5398 196.7 96.5478 196.7H94.8038C93.8118 196.7 93.3158 196.231 93.3158 195.292V192.604C93.3158 192.092 93.5238 191.778 93.9398 191.66C93.5238 191.564 93.3158 191.234 93.3158 190.668V188.092C93.3158 187.154 93.8118 186.684 94.8038 186.684H96.5478C97.5398 186.684 98.0358 187.154 98.0358 188.092ZM96.6118 195.068V192.668C96.6118 192.487 96.5798 192.364 96.5158 192.3C96.4624 192.236 96.3398 192.204 96.1478 192.204H95.2038C95.0118 192.204 94.8838 192.236 94.8198 192.3C94.7664 192.364 94.7398 192.487 94.7398 192.668V195.068C94.7398 195.26 94.7664 195.388 94.8198 195.452C94.8838 195.516 95.0118 195.548 95.2038 195.548H96.1478C96.3398 195.548 96.4624 195.516 96.5158 195.452C96.5798 195.388 96.6118 195.26 96.6118 195.068ZM96.6118 190.636V188.3C96.6118 188.119 96.5798 187.996 96.5158 187.932C96.4624 187.868 96.3398 187.836 96.1478 187.836H95.2038C95.0118 187.836 94.8838 187.868 94.8198 187.932C94.7664 187.996 94.7398 188.119 94.7398 188.3V190.636C94.7398 190.818 94.7664 190.94 94.8198 191.004C94.8838 191.068 95.0118 191.1 95.2038 191.1H96.1478C96.3398 191.1 96.4624 191.068 96.5158 191.004C96.5798 190.94 96.6118 190.818 96.6118 190.636Z" fill="#A8E7FF"/>
<path d="M102.815 195.068V188.316C102.815 188.124 102.783 188.002 102.719 187.948C102.655 187.884 102.527 187.852 102.335 187.852H101.471C101.279 187.852 101.151 187.884 101.087 187.948C101.033 188.002 101.007 188.124 101.007 188.316V195.068C101.007 195.26 101.033 195.388 101.087 195.452C101.151 195.506 101.279 195.532 101.471 195.532H102.335C102.527 195.532 102.655 195.506 102.719 195.452C102.783 195.388 102.815 195.26 102.815 195.068ZM104.271 188.092V195.292C104.271 196.231 103.775 196.7 102.783 196.7H101.039C100.036 196.7 99.5345 196.231 99.5345 195.292V188.092C99.5345 187.154 100.036 186.684 101.039 186.684H102.783C103.775 186.684 104.271 187.154 104.271 188.092Z" fill="#A8E7FF"/>
<path d="M74.2125 258.385V259.281L71.5245 268.401H70.0525L72.6605 259.585H69.7325V258.385H74.2125Z" fill="#A8E7FF"/>
<path d="M78.3247 266.769V260.017C78.3247 259.825 78.2927 259.702 78.2287 259.649C78.1647 259.585 78.0367 259.553 77.8447 259.553H76.9807C76.7887 259.553 76.6607 259.585 76.5967 259.649C76.5434 259.702 76.5167 259.825 76.5167 260.017V266.769C76.5167 266.961 76.5434 267.089 76.5967 267.153C76.6607 267.206 76.7887 267.233 76.9807 267.233H77.8447C78.0367 267.233 78.1647 267.206 78.2287 267.153C78.2927 267.089 78.3247 266.961 78.3247 266.769ZM79.7807 259.793V266.993C79.7807 267.931 79.2847 268.401 78.2927 268.401H76.5487C75.5461 268.401 75.0447 267.931 75.0447 266.993V259.793C75.0447 258.854 75.5461 258.385 76.5487 258.385H78.2927C79.2847 258.385 79.7807 258.854 79.7807 259.793Z" fill="#A8E7FF"/>
<path d="M57.4831 333.341H59.2431C60.2351 333.341 60.7311 333.816 60.7311 334.765V337.693C60.7311 338.632 60.2351 339.101 59.2431 339.101H57.5471C56.5444 339.101 56.0431 338.632 56.0431 337.693V330.493C56.0431 329.555 56.5444 329.085 57.5471 329.085H59.1951C60.1871 329.085 60.6831 329.555 60.6831 330.493V332.221H59.2591V330.717C59.2591 330.525 59.2271 330.403 59.1631 330.349C59.0991 330.285 58.9711 330.253 58.7791 330.253H57.9631C57.7711 330.253 57.6431 330.285 57.5791 330.349C57.5151 330.403 57.4831 330.525 57.4831 330.717V333.341ZM59.2911 337.469V334.957C59.2911 334.776 59.2591 334.653 59.1951 334.589C59.1311 334.525 59.0031 334.493 58.8111 334.493H57.4831V337.469C57.4831 337.661 57.5151 337.789 57.5791 337.853C57.6431 337.907 57.7711 337.933 57.9631 337.933H58.8111C59.0031 337.933 59.1311 337.907 59.1951 337.853C59.2591 337.789 59.2911 337.661 59.2911 337.469Z" fill="#A8E7FF"/>
<path d="M65.4325 337.469V330.717C65.4325 330.525 65.4005 330.403 65.3365 330.349C65.2725 330.285 65.1445 330.253 64.9525 330.253H64.0885C63.8965 330.253 63.7685 330.285 63.7045 330.349C63.6511 330.403 63.6245 330.525 63.6245 330.717V337.469C63.6245 337.661 63.6511 337.789 63.7045 337.853C63.7685 337.907 63.8965 337.933 64.0885 337.933H64.9525C65.1445 337.933 65.2725 337.907 65.3365 337.853C65.4005 337.789 65.4325 337.661 65.4325 337.469ZM66.8885 330.493V337.693C66.8885 338.632 66.3925 339.101 65.4005 339.101H63.6565C62.6538 339.101 62.1525 338.632 62.1525 337.693V330.493C62.1525 329.555 62.6538 329.085 63.6565 329.085H65.4005C66.3925 329.085 66.8885 329.555 66.8885 330.493Z" fill="#A8E7FF"/>
<path d="M54.1121 402.744H55.6641C56.6668 402.744 57.1681 403.213 57.1681 404.152V407.592C57.1681 408.531 56.6668 409 55.6641 409H54.1281C53.1361 409 52.6401 408.531 52.6401 407.592V405.816H54.0961V407.368C54.0961 407.56 54.1281 407.688 54.1921 407.752C54.2561 407.805 54.3841 407.832 54.5761 407.832H55.2321C55.4241 407.832 55.5521 407.805 55.6161 407.752C55.6801 407.688 55.7121 407.56 55.7121 407.368V404.376C55.7121 404.184 55.6801 404.056 55.6161 403.992C55.5521 403.928 55.4241 403.896 55.2321 403.896H52.6721V398.984H57.1361V400.152H54.1121V402.744Z" fill="#A8E7FF"/>
<path d="M61.7665 407.368V400.616C61.7665 400.424 61.7345 400.301 61.6705 400.248C61.6065 400.184 61.4785 400.152 61.2865 400.152H60.4225C60.2305 400.152 60.1025 400.184 60.0385 400.248C59.9852 400.301 59.9585 400.424 59.9585 400.616V407.368C59.9585 407.56 59.9852 407.688 60.0385 407.752C60.1025 407.805 60.2305 407.832 60.4225 407.832H61.2865C61.4785 407.832 61.6065 407.805 61.6705 407.752C61.7345 407.688 61.7665 407.56 61.7665 407.368ZM63.2225 400.392V407.592C63.2225 408.531 62.7265 409 61.7345 409H59.9905C58.9878 409 58.4865 408.531 58.4865 407.592V400.392C58.4865 399.453 58.9878 398.984 59.9905 398.984H61.7345C62.7265 398.984 63.2225 399.453 63.2225 400.392Z" fill="#A8E7FF"/>
<path d="M60.8081 476.832V478.016H59.9121V480H58.5201V478.016H55.0961V476.816L57.9761 469.984H59.4161L56.4721 476.832H58.5201V474.912H59.9121V476.832H60.8081Z" fill="#A8E7FF"/>
<path d="M64.8446 478.368V471.616C64.8446 471.424 64.8126 471.301 64.7486 471.248C64.6846 471.184 64.5566 471.152 64.3646 471.152H63.5006C63.3086 471.152 63.1806 471.184 63.1166 471.248C63.0633 471.301 63.0366 471.424 63.0366 471.616V478.368C63.0366 478.56 63.0633 478.688 63.1166 478.752C63.1806 478.805 63.3086 478.832 63.5006 478.832H64.3646C64.5566 478.832 64.6846 478.805 64.7486 478.752C64.8126 478.688 64.8446 478.56 64.8446 478.368ZM66.3006 471.392V478.592C66.3006 479.531 65.8046 480 64.8126 480H63.0686C62.066 480 61.5646 479.531 61.5646 478.592V471.392C61.5646 470.453 62.066 469.984 63.0686 469.984H64.8126C65.8046 469.984 66.3006 470.453 66.3006 471.392Z" fill="#A8E7FF"/>
<path d="M70.9041 541.616V543.12H69.4641V541.392C69.4641 540.453 69.9601 539.984 70.9521 539.984H72.4241C73.4268 539.984 73.9281 540.453 73.9281 541.392V543.92C73.9281 544.485 73.7148 544.816 73.2881 544.912C73.7148 545.008 73.9281 545.317 73.9281 545.84V548.592C73.9281 549.531 73.4268 550 72.4241 550H70.9521C69.9601 550 69.4641 549.531 69.4641 548.592V546.88H70.9041V548.368C70.9041 548.56 70.9361 548.688 71.0001 548.752C71.0641 548.805 71.1921 548.832 71.3841 548.832H72.0081C72.2001 548.832 72.3281 548.805 72.3921 548.752C72.4561 548.688 72.4881 548.56 72.4881 548.368V545.968C72.4881 545.776 72.4561 545.653 72.3921 545.6C72.3281 545.536 72.2001 545.504 72.0081 545.504H70.8081V544.352H72.0081C72.2001 544.352 72.3281 544.325 72.3921 544.272C72.4561 544.208 72.4881 544.08 72.4881 543.888V541.616C72.4881 541.424 72.4561 541.301 72.3921 541.248C72.3281 541.184 72.2001 541.152 72.0081 541.152H71.3841C71.1921 541.152 71.0641 541.184 71.0001 541.248C70.9361 541.301 70.9041 541.424 70.9041 541.616Z" fill="#A8E7FF"/>
<path d="M78.7196 548.368V541.616C78.7196 541.424 78.6876 541.301 78.6236 541.248C78.5596 541.184 78.4316 541.152 78.2396 541.152H77.3756C77.1836 541.152 77.0556 541.184 76.9916 541.248C76.9383 541.301 76.9116 541.424 76.9116 541.616V548.368C76.9116 548.56 76.9383 548.688 76.9916 548.752C77.0556 548.805 77.1836 548.832 77.3756 548.832H78.2396C78.4316 548.832 78.5596 548.805 78.6236 548.752C78.6876 548.688 78.7196 548.56 78.7196 548.368ZM80.1756 541.392V548.592C80.1756 549.531 79.6796 550 78.6876 550H76.9436C75.941 550 75.4396 549.531 75.4396 548.592V541.392C75.4396 540.453 75.941 539.984 76.9436 539.984H78.6876C79.6796 539.984 80.1756 540.453 80.1756 541.392Z" fill="#A8E7FF"/>
<path d="M94.8401 609.616V611.248H93.4001V609.392C93.4001 608.453 93.8961 607.984 94.8881 607.984H96.2641C97.2668 607.984 97.7681 608.453 97.7681 609.392V610.4C97.7681 611.147 97.5815 611.877 97.2081 612.592L95.0481 616.832H97.8321V618H93.4161V616.88L95.8641 612.272C96.1628 611.707 96.3121 611.067 96.3121 610.352V609.616C96.3121 609.424 96.2801 609.301 96.2161 609.248C96.1628 609.184 96.0348 609.152 95.8321 609.152H95.3201C95.1281 609.152 95.0001 609.184 94.9361 609.248C94.8721 609.301 94.8401 609.424 94.8401 609.616Z" fill="#A8E7FF"/>
<path d="M102.282 616.368V609.616C102.282 609.424 102.25 609.301 102.186 609.248C102.122 609.184 101.994 609.152 101.802 609.152H100.938C100.746 609.152 100.618 609.184 100.554 609.248C100.501 609.301 100.474 609.424 100.474 609.616V616.368C100.474 616.56 100.501 616.688 100.554 616.752C100.618 616.805 100.746 616.832 100.938 616.832H101.802C101.994 616.832 102.122 616.805 102.186 616.752C102.25 616.688 102.282 616.56 102.282 616.368ZM103.738 609.392V616.592C103.738 617.531 103.242 618 102.25 618H100.506C99.5035 618 99.0021 617.531 99.0021 616.592V609.392C99.0021 608.453 99.5035 607.984 100.506 607.984H102.25C103.242 607.984 103.738 608.453 103.738 609.392Z" fill="#A8E7FF"/>
<path d="M134.492 680.587V690.603H133.036V681.755H131.884V680.587H134.492Z" fill="#A8E7FF"/>
<path d="M139.361 688.971V682.219C139.361 682.027 139.329 681.904 139.265 681.851C139.201 681.787 139.073 681.755 138.881 681.755H138.017C137.825 681.755 137.697 681.787 137.633 681.851C137.58 681.904 137.553 682.027 137.553 682.219V688.971C137.553 689.163 137.58 689.291 137.633 689.355C137.697 689.409 137.825 689.435 138.017 689.435H138.881C139.073 689.435 139.201 689.409 139.265 689.355C139.329 689.291 139.361 689.163 139.361 688.971ZM140.817 681.995V689.195C140.817 690.134 140.321 690.603 139.329 690.603H137.585C136.583 690.603 136.081 690.134 136.081 689.195V681.995C136.081 681.057 136.583 680.587 137.585 680.587H139.329C140.321 680.587 140.817 681.057 140.817 681.995Z" fill="#A8E7FF"/>
<path d="M132.169 116.984H133.865C134.868 116.984 135.369 117.453 135.369 118.392V125.592C135.369 126.531 134.868 127 133.865 127H132.217C131.214 127 130.713 126.531 130.713 125.592V123.88H132.153V125.368C132.153 125.56 132.18 125.688 132.233 125.752C132.297 125.805 132.43 125.832 132.633 125.832H133.449C133.641 125.832 133.764 125.805 133.817 125.752C133.881 125.688 133.913 125.56 133.913 125.368V122.904H132.169C131.177 122.904 130.681 122.429 130.681 121.48V118.392C130.681 117.453 131.177 116.984 132.169 116.984ZM132.601 121.768H133.913V118.616C133.913 118.424 133.881 118.301 133.817 118.248C133.764 118.184 133.641 118.152 133.449 118.152H132.601C132.409 118.152 132.281 118.184 132.217 118.248C132.153 118.301 132.121 118.424 132.121 118.616V121.304C132.121 121.485 132.153 121.608 132.217 121.672C132.281 121.736 132.409 121.768 132.601 121.768Z" fill="#A8E7FF"/>
<path d="M140.152 125.368V118.616C140.152 118.424 140.12 118.301 140.056 118.248C139.992 118.184 139.864 118.152 139.672 118.152H138.808C138.616 118.152 138.488 118.184 138.424 118.248C138.37 118.301 138.344 118.424 138.344 118.616V125.368C138.344 125.56 138.37 125.688 138.424 125.752C138.488 125.805 138.616 125.832 138.808 125.832H139.672C139.864 125.832 139.992 125.805 140.056 125.752C140.12 125.688 140.152 125.56 140.152 125.368ZM141.608 118.392V125.592C141.608 126.531 141.112 127 140.12 127H138.376C137.373 127 136.872 126.531 136.872 125.592V118.392C136.872 117.453 137.373 116.984 138.376 116.984H140.12C141.112 116.984 141.608 117.453 141.608 118.392Z" fill="#A8E7FF"/>
<path d="M1096.06 114.427C1095.04 113.04 1094.02 111.675 1093 110.331V109.711L1114.93 92.9144C1116.19 94.5571 1117.44 96.2246 1118.67 97.9166L1096.06 114.427Z" fill="url(#paint3_linear_402_3966)" fill-opacity="0.75"/>
<path d="M1111.06 87.9832L1093 102.52V95.077L1107.07 83.1524C1108.41 84.7355 1109.74 86.346 1111.06 87.9832Z" fill="url(#paint4_linear_402_3966)" fill-opacity="0.75"/>
<path d="M1102.92 78.3894L1093 87.2665V79.1093L1098.66 73.7545C1100.09 75.2695 1101.51 76.8147 1102.92 78.3894Z" fill="url(#paint5_linear_402_3966)" fill-opacity="0.75"/>
<path d="M1094.22 69.2001L1093 70.4221V68C1093.41 68.3977 1093.81 68.7977 1094.22 69.2001Z" fill="url(#paint6_linear_402_3966)" fill-opacity="0.75"/>
<path d="M1122.28 102.983C1123.47 104.679 1124.64 106.398 1125.8 108.139L1102.5 123.664C1101.44 122.083 1100.38 120.527 1099.31 118.995L1122.28 102.983Z" fill="url(#paint7_linear_402_3966)" fill-opacity="0.75"/>
<path d="M1129.17 113.314C1130.28 115.058 1131.39 116.823 1132.48 118.609L1108.58 133.207C1107.58 131.573 1106.58 129.961 1105.56 128.371L1129.17 113.314Z" fill="url(#paint8_linear_402_3966)" fill-opacity="0.75"/>
<path d="M1135.63 123.872C1136.67 125.645 1137.69 127.438 1138.71 129.25L1114.31 142.978C1113.37 141.308 1112.42 139.659 1111.47 138.031L1135.63 123.872Z" fill="url(#paint9_linear_402_3966)" fill-opacity="0.75"/>
<path d="M1141.68 134.629C1142.65 136.424 1143.61 138.237 1144.56 140.068L1119.71 152.973C1118.83 151.277 1117.94 149.599 1117.05 147.94L1141.68 134.629Z" fill="url(#paint10_linear_402_3966)" fill-opacity="0.75"/>
<path d="M1147.36 145.564C1148.26 147.376 1149.16 149.205 1150.05 151.05L1124.81 163.176C1123.98 161.458 1123.15 159.756 1122.31 158.072L1147.36 145.564Z" fill="url(#paint11_linear_402_3966)" fill-opacity="0.75"/>
<path d="M1152.68 156.631C1153.53 158.466 1154.36 160.316 1155.19 162.181L1129.61 173.566C1128.84 171.821 1128.05 170.093 1127.26 168.38L1152.68 156.631Z" fill="url(#paint12_linear_402_3966)" fill-opacity="0.75"/>
<path d="M1157.64 167.792C1158.45 169.663 1159.24 171.548 1160.02 173.448L1134.14 184.126C1133.4 182.342 1132.66 180.574 1131.91 178.82L1157.64 167.792Z" fill="url(#paint13_linear_402_3966)" fill-opacity="0.75"/>
<path d="M1162.3 179.081C1163.05 180.972 1163.8 182.876 1164.53 184.793L1138.38 194.798C1137.69 192.992 1136.99 191.199 1136.28 189.42L1162.3 179.081Z" fill="url(#paint14_linear_402_3966)" fill-opacity="0.75"/>
<path d="M1166.67 190.489C1167.37 192.384 1168.06 194.292 1168.74 196.212L1142.35 205.572C1141.71 203.758 1141.05 201.957 1140.4 200.168L1166.67 190.489Z" fill="url(#paint15_linear_402_3966)" fill-opacity="0.75"/>
<path d="M1170.75 202.006C1171.4 203.905 1172.04 205.815 1172.67 207.736L1146.07 216.477C1145.47 214.657 1144.87 212.848 1144.26 211.052L1170.75 202.006Z" fill="url(#paint16_linear_402_3966)" fill-opacity="0.75"/>
<path d="M1174.54 213.532C1175.15 215.464 1175.75 217.406 1176.35 219.36L1149.56 227.501C1148.99 225.647 1148.42 223.803 1147.84 221.971L1174.54 213.532Z" fill="url(#paint17_linear_402_3966)" fill-opacity="0.75"/>
<path d="M1178.07 225.154C1178.64 227.095 1179.2 229.047 1179.75 231.009L1152.79 238.574C1152.27 236.708 1151.74 234.852 1151.2 233.006L1178.07 225.154Z" fill="url(#paint18_linear_402_3966)" fill-opacity="0.75"/>
<path d="M1181.36 236.866C1181.88 238.806 1182.4 240.755 1182.9 242.713L1155.8 249.72C1155.31 247.854 1154.82 245.997 1154.33 244.15L1181.36 236.866Z" fill="url(#paint19_linear_402_3966)" fill-opacity="0.75"/>
<path d="M1184.4 248.615C1184.88 250.569 1185.36 252.531 1185.83 254.501L1158.58 260.965C1158.14 259.084 1157.68 257.212 1157.22 255.348L1184.4 248.615Z" fill="url(#paint20_linear_402_3966)" fill-opacity="0.75"/>
<path d="M1187.19 260.391C1187.64 262.363 1188.08 264.343 1188.51 266.331L1161.15 272.266C1160.74 270.366 1160.32 268.473 1159.89 266.59L1187.19 260.391Z" fill="url(#paint21_linear_402_3966)" fill-opacity="0.75"/>
<path d="M1189.76 272.244C1190.17 274.21 1190.57 276.185 1190.96 278.167L1163.49 283.589C1163.12 281.692 1162.74 279.802 1162.35 277.921L1189.76 272.244Z" fill="url(#paint22_linear_402_3966)" fill-opacity="0.75"/>
<path d="M1192.11 284.136C1192.48 286.109 1192.84 288.089 1193.2 290.076L1165.63 294.994C1165.3 293.09 1164.95 291.194 1164.59 289.305L1192.11 284.136Z" fill="url(#paint23_linear_402_3966)" fill-opacity="0.75"/>
<path d="M1194.23 296.025C1194.57 298.016 1194.9 300.013 1195.22 302.017L1167.57 306.443C1167.26 304.521 1166.95 302.605 1166.63 300.697L1194.23 296.025Z" fill="url(#paint24_linear_402_3966)" fill-opacity="0.75"/>
<path d="M1196.15 307.981C1196.45 309.965 1196.74 311.955 1197.02 313.952L1169.3 317.896C1169.03 315.979 1168.75 314.069 1168.46 312.165L1196.15 307.981Z" fill="url(#paint25_linear_402_3966)" fill-opacity="0.75"/>
<path d="M1197.85 319.96C1198.12 321.95 1198.38 323.946 1198.63 325.948L1170.84 329.418C1170.6 327.494 1170.35 325.576 1170.1 323.665L1197.85 319.96Z" fill="url(#paint26_linear_402_3966)" fill-opacity="0.75"/>
<path d="M1199.35 331.933C1199.58 333.934 1199.81 335.94 1200.02 337.953L1172.18 340.956C1171.98 339.021 1171.76 337.092 1171.54 335.169L1199.35 331.933Z" fill="url(#paint27_linear_402_3966)" fill-opacity="0.75"/>
<path d="M1200.65 343.963C1200.84 345.957 1201.03 347.955 1201.22 349.958L1173.33 352.503C1173.16 350.575 1172.97 348.653 1172.78 346.736L1200.65 343.963Z" fill="url(#paint28_linear_402_3966)" fill-opacity="0.75"/>
<path d="M1201.74 355.985C1201.91 357.99 1202.07 360.001 1202.22 362.017L1174.3 364.107C1174.15 362.166 1174 360.231 1173.84 358.301L1201.74 355.985Z" fill="url(#paint29_linear_402_3966)" fill-opacity="0.75"/>
<path d="M1202.64 368.018C1202.78 370.023 1202.9 372.032 1203.02 374.047L1175.07 375.689C1174.96 373.749 1174.83 371.814 1174.71 369.884L1202.64 368.018Z" fill="url(#paint30_linear_402_3966)" fill-opacity="0.75"/>
<path d="M1203.35 380.098C1203.45 382.095 1203.55 384.096 1203.63 386.101L1175.66 387.3C1175.58 385.368 1175.49 383.44 1175.39 381.517L1203.35 380.098Z" fill="url(#paint31_linear_402_3966)" fill-opacity="0.75"/>
<path d="M1203.87 392.129C1203.94 394.143 1204 396.161 1204.06 398.183L1176.07 398.942C1176.01 396.994 1175.95 395.049 1175.89 393.109L1203.87 392.129Z" fill="url(#paint32_linear_402_3966)" fill-opacity="0.75"/>
<path d="M1204.24 406.651C1204.23 405.833 1204.21 405.016 1204.2 404.199L1176.2 404.741C1176.21 405.377 1176.23 406.014 1176.24 406.651H1204.24Z" fill="url(#paint33_linear_402_3966)" fill-opacity="0.75"/>
<path d="M1096.06 696.573C1095.04 697.96 1094.02 699.325 1093 700.669V701.288L1114.93 718.085C1116.19 716.443 1117.44 714.775 1118.67 713.083L1096.06 696.573Z" fill="url(#paint34_linear_402_3966)" fill-opacity="0.75"/>
<path d="M1111.06 723.017L1093 708.48V715.923L1107.07 727.848C1108.41 726.264 1109.74 724.654 1111.06 723.017Z" fill="url(#paint35_linear_402_3966)" fill-opacity="0.75"/>
<path d="M1102.92 732.61L1093 723.733V731.891L1098.66 737.245C1100.09 735.73 1101.51 734.185 1102.92 732.61Z" fill="url(#paint36_linear_402_3966)" fill-opacity="0.75"/>
<path d="M1094.22 741.8L1093 740.578V743C1093.41 742.602 1093.81 742.202 1094.22 741.8Z" fill="url(#paint37_linear_402_3966)" fill-opacity="0.75"/>
<path d="M1122.28 708.017C1123.47 706.321 1124.64 704.602 1125.8 702.861L1102.5 687.336C1101.44 688.917 1100.38 690.473 1099.31 692.005L1122.28 708.017Z" fill="url(#paint38_linear_402_3966)" fill-opacity="0.75"/>
<path d="M1129.17 697.686C1130.28 695.942 1131.39 694.177 1132.48 692.391L1108.58 677.793C1107.58 679.427 1106.58 681.039 1105.56 682.629L1129.17 697.686Z" fill="url(#paint39_linear_402_3966)" fill-opacity="0.75"/>
<path d="M1135.63 687.128C1136.67 685.354 1137.7 683.561 1138.71 681.749L1114.31 668.022C1113.37 669.691 1112.42 671.341 1111.47 672.969L1135.63 687.128Z" fill="url(#paint40_linear_402_3966)" fill-opacity="0.75"/>
<path d="M1141.68 676.371C1142.65 674.575 1143.61 672.762 1144.56 670.932L1119.71 658.027C1118.83 659.723 1117.94 661.401 1117.05 663.06L1141.68 676.371Z" fill="url(#paint41_linear_402_3966)" fill-opacity="0.75"/>
<path d="M1147.36 665.436C1148.26 663.624 1149.16 661.795 1150.05 659.95L1124.81 647.824C1123.98 649.542 1123.15 651.244 1122.31 652.928L1147.36 665.436Z" fill="url(#paint42_linear_402_3966)" fill-opacity="0.75"/>
<path d="M1152.68 654.368C1153.53 652.534 1154.36 650.684 1155.19 648.819L1129.61 637.434C1128.84 639.178 1128.05 640.907 1127.26 642.62L1152.68 654.368Z" fill="url(#paint43_linear_402_3966)" fill-opacity="0.75"/>
<path d="M1157.64 643.208C1158.45 641.337 1159.24 639.451 1160.02 637.552L1134.14 626.874C1133.4 628.657 1132.66 630.426 1131.91 632.18L1157.64 643.208Z" fill="url(#paint44_linear_402_3966)" fill-opacity="0.75"/>
<path d="M1162.3 631.919C1163.05 630.028 1163.8 628.124 1164.53 626.206L1138.38 616.202C1137.69 618.008 1136.99 619.801 1136.28 621.58L1162.3 631.919Z" fill="url(#paint45_linear_402_3966)" fill-opacity="0.75"/>
<path d="M1166.67 620.511C1167.37 618.616 1168.06 616.708 1168.74 614.788L1142.35 605.428C1141.71 607.242 1141.05 609.043 1140.4 610.831L1166.67 620.511Z" fill="url(#paint46_linear_402_3966)" fill-opacity="0.75"/>
<path d="M1170.75 608.993C1171.4 607.095 1172.04 605.185 1172.67 603.264L1146.07 594.523C1145.47 596.343 1144.87 598.152 1144.26 599.948L1170.75 608.993Z" fill="url(#paint47_linear_402_3966)" fill-opacity="0.75"/>
<path d="M1174.54 597.468C1175.15 595.536 1175.75 593.593 1176.35 591.64L1149.56 583.498C1148.99 585.353 1148.42 587.197 1147.84 589.029L1174.54 597.468Z" fill="url(#paint48_linear_402_3966)" fill-opacity="0.75"/>
<path d="M1178.07 585.846C1178.64 583.904 1179.2 581.953 1179.75 579.991L1152.79 572.426C1152.27 574.292 1151.74 576.148 1151.2 577.994L1178.07 585.846Z" fill="url(#paint49_linear_402_3966)" fill-opacity="0.75"/>
<path d="M1181.36 574.133C1181.88 572.194 1182.4 570.245 1182.9 568.286L1155.8 561.279C1155.31 563.146 1154.82 565.003 1154.33 566.85L1181.36 574.133Z" fill="url(#paint50_linear_402_3966)" fill-opacity="0.75"/>
<path d="M1184.4 562.384C1184.88 560.431 1185.36 558.469 1185.83 556.498L1158.58 550.035C1158.14 551.916 1157.68 553.788 1157.22 555.651L1184.4 562.384Z" fill="url(#paint51_linear_402_3966)" fill-opacity="0.75"/>
<path d="M1187.19 550.609C1187.64 548.637 1188.08 546.657 1188.51 544.669L1161.15 538.734C1160.74 540.634 1160.32 542.526 1159.89 544.41L1187.19 550.609Z" fill="url(#paint52_linear_402_3966)" fill-opacity="0.75"/>
<path d="M1189.76 538.756C1190.17 536.789 1190.57 534.815 1190.96 532.833L1163.49 527.411C1163.12 529.308 1162.74 531.197 1162.35 533.079L1189.76 538.756Z" fill="url(#paint53_linear_402_3966)" fill-opacity="0.75"/>
<path d="M1192.11 526.863C1192.48 524.891 1192.84 522.911 1193.2 520.924L1165.63 516.006C1165.3 517.91 1164.95 519.806 1164.59 521.695L1192.11 526.863Z" fill="url(#paint54_linear_402_3966)" fill-opacity="0.75"/>
<path d="M1194.23 514.974C1194.57 512.984 1194.9 510.987 1195.22 508.983L1167.57 504.557C1167.26 506.479 1166.95 508.394 1166.63 510.303L1194.23 514.974Z" fill="url(#paint55_linear_402_3966)" fill-opacity="0.75"/>
<path d="M1196.15 503.018C1196.45 501.035 1196.74 499.045 1197.02 497.048L1169.3 493.104C1169.03 495.021 1168.75 496.931 1168.46 498.834L1196.15 503.018Z" fill="url(#paint56_linear_402_3966)" fill-opacity="0.75"/>
<path d="M1197.85 491.04C1198.12 489.05 1198.38 487.054 1198.63 485.052L1170.84 481.582C1170.6 483.506 1170.35 485.423 1170.1 487.335L1197.85 491.04Z" fill="url(#paint57_linear_402_3966)" fill-opacity="0.75"/>
<path d="M1199.35 479.067C1199.58 477.066 1199.81 475.059 1200.02 473.047L1172.18 470.044C1171.98 471.979 1171.76 473.908 1171.54 475.831L1199.35 479.067Z" fill="url(#paint58_linear_402_3966)" fill-opacity="0.75"/>
<path d="M1200.65 467.036C1200.84 465.043 1201.03 463.045 1201.22 461.041L1173.33 458.497C1173.16 460.425 1172.97 462.347 1172.78 464.264L1200.65 467.036Z" fill="url(#paint59_linear_402_3966)" fill-opacity="0.75"/>
<path d="M1201.74 455.015C1201.91 453.009 1202.07 450.999 1202.22 448.983L1174.3 446.893C1174.15 448.834 1174 450.769 1173.84 452.699L1201.74 455.015Z" fill="url(#paint60_linear_402_3966)" fill-opacity="0.75"/>
<path d="M1202.64 442.982C1202.78 440.977 1202.9 438.967 1203.02 436.953L1175.07 435.311C1174.96 437.251 1174.83 439.186 1174.71 441.116L1202.64 442.982Z" fill="url(#paint61_linear_402_3966)" fill-opacity="0.75"/>
<path d="M1203.35 430.902C1203.45 428.905 1203.55 426.904 1203.63 424.899L1175.66 423.7C1175.58 425.632 1175.49 427.559 1175.39 429.483L1203.35 430.902Z" fill="url(#paint62_linear_402_3966)" fill-opacity="0.75"/>
<path d="M1203.87 418.87C1203.94 416.857 1204 414.839 1204.06 412.817L1176.07 412.058C1176.01 414.006 1175.95 415.951 1175.89 417.891L1203.87 418.87Z" fill="url(#paint63_linear_402_3966)" fill-opacity="0.75"/>
<path d="M1204.24 404.349C1204.23 405.167 1204.21 405.984 1204.2 406.801L1176.2 406.259C1176.21 405.623 1176.23 404.986 1176.24 404.349H1204.24Z" fill="url(#paint64_linear_402_3966)" fill-opacity="0.75"/>
<defs>
<linearGradient id="paint0_linear_402_3966" x1="629" y1="748.5" x2="645" y2="79.9999" gradientUnits="userSpaceOnUse">
<stop offset="0.108327" stop-color="white" stop-opacity="0"/>
<stop offset="0.402802" stop-color="#BDCCCE"/>
<stop offset="0.773256" stop-color="#A7B4B6"/>
<stop offset="0.889139" stop-color="white" stop-opacity="0"/>
</linearGradient>
<linearGradient id="paint1_linear_402_3966" x1="28.4995" y1="506.746" x2="1229.5" y2="506.746" gradientUnits="userSpaceOnUse">
<stop offset="0.0729167" stop-color="#0C7282"/>
<stop offset="0.145833" stop-color="white" stop-opacity="0"/>
<stop offset="0.864583" stop-color="white" stop-opacity="0"/>
<stop offset="0.916667" stop-color="#0C7282"/>
</linearGradient>
<linearGradient id="paint2_linear_402_3966" x1="28.4995" y1="506.746" x2="1229.5" y2="506.746" gradientUnits="userSpaceOnUse">
<stop offset="0.0729167" stop-color="#0C7282"/>
<stop offset="0.145833" stop-color="white" stop-opacity="0"/>
<stop offset="0.864583" stop-color="white" stop-opacity="0"/>
<stop offset="0.916667" stop-color="#0C7282"/>
</linearGradient>
<linearGradient id="paint3_linear_402_3966" x1="1101.5" y1="77.5" x2="1104.84" y2="707.761" gradientUnits="userSpaceOnUse">
<stop offset="0.0403666" stop-color="#4DABCE" stop-opacity="0.04"/>
<stop offset="0.264659" stop-color="#4DABCE"/>
<stop offset="0.498326" stop-color="#9E9B82" stop-opacity="0.97"/>
<stop offset="0.701569" stop-color="#E08F44" stop-opacity="0.79"/>
<stop offset="0.90625" stop-color="#E08F44" stop-opacity="0.13"/>
</linearGradient>
<linearGradient id="paint4_linear_402_3966" x1="1101.5" y1="77.5" x2="1104.84" y2="707.761" gradientUnits="userSpaceOnUse">
<stop offset="0.0403666" stop-color="#4DABCE" stop-opacity="0.04"/>
<stop offset="0.264659" stop-color="#4DABCE"/>
<stop offset="0.498326" stop-color="#9E9B82" stop-opacity="0.97"/>
<stop offset="0.701569" stop-color="#E08F44" stop-opacity="0.79"/>
<stop offset="0.90625" stop-color="#E08F44" stop-opacity="0.13"/>
</linearGradient>
<linearGradient id="paint5_linear_402_3966" x1="1101.5" y1="77.5" x2="1104.84" y2="707.761" gradientUnits="userSpaceOnUse">
<stop offset="0.0403666" stop-color="#4DABCE" stop-opacity="0.04"/>
<stop offset="0.264659" stop-color="#4DABCE"/>
<stop offset="0.498326" stop-color="#9E9B82" stop-opacity="0.97"/>
<stop offset="0.701569" stop-color="#E08F44" stop-opacity="0.79"/>
<stop offset="0.90625" stop-color="#E08F44" stop-opacity="0.13"/>
</linearGradient>
<linearGradient id="paint6_linear_402_3966" x1="1101.5" y1="77.5" x2="1104.84" y2="707.761" gradientUnits="userSpaceOnUse">
<stop offset="0.0403666" stop-color="#4DABCE" stop-opacity="0.04"/>
<stop offset="0.264659" stop-color="#4DABCE"/>
<stop offset="0.498326" stop-color="#9E9B82" stop-opacity="0.97"/>
<stop offset="0.701569" stop-color="#E08F44" stop-opacity="0.79"/>
<stop offset="0.90625" stop-color="#E08F44" stop-opacity="0.13"/>
</linearGradient>
<linearGradient id="paint7_linear_402_3966" x1="1101.5" y1="77.5" x2="1104.84" y2="707.761" gradientUnits="userSpaceOnUse">
<stop offset="0.0403666" stop-color="#4DABCE" stop-opacity="0.04"/>
<stop offset="0.264659" stop-color="#4DABCE"/>
<stop offset="0.498326" stop-color="#9E9B82" stop-opacity="0.97"/>
<stop offset="0.701569" stop-color="#E08F44" stop-opacity="0.79"/>
<stop offset="0.90625" stop-color="#E08F44" stop-opacity="0.13"/>
</linearGradient>
<linearGradient id="paint8_linear_402_3966" x1="1101.5" y1="77.5" x2="1104.84" y2="707.761" gradientUnits="userSpaceOnUse">
<stop offset="0.0403666" stop-color="#4DABCE" stop-opacity="0.04"/>
<stop offset="0.264659" stop-color="#4DABCE"/>
<stop offset="0.498326" stop-color="#9E9B82" stop-opacity="0.97"/>
<stop offset="0.701569" stop-color="#E08F44" stop-opacity="0.79"/>
<stop offset="0.90625" stop-color="#E08F44" stop-opacity="0.13"/>
</linearGradient>
<linearGradient id="paint9_linear_402_3966" x1="1101.5" y1="77.5" x2="1104.84" y2="707.761" gradientUnits="userSpaceOnUse">
<stop offset="0.0403666" stop-color="#4DABCE" stop-opacity="0.04"/>
<stop offset="0.264659" stop-color="#4DABCE"/>
<stop offset="0.498326" stop-color="#9E9B82" stop-opacity="0.97"/>
<stop offset="0.701569" stop-color="#E08F44" stop-opacity="0.79"/>
<stop offset="0.90625" stop-color="#E08F44" stop-opacity="0.13"/>
</linearGradient>
<linearGradient id="paint10_linear_402_3966" x1="1101.5" y1="77.5" x2="1104.84" y2="707.761" gradientUnits="userSpaceOnUse">
<stop offset="0.0403666" stop-color="#4DABCE" stop-opacity="0.04"/>
<stop offset="0.264659" stop-color="#4DABCE"/>
<stop offset="0.498326" stop-color="#9E9B82" stop-opacity="0.97"/>
<stop offset="0.701569" stop-color="#E08F44" stop-opacity="0.79"/>
<stop offset="0.90625" stop-color="#E08F44" stop-opacity="0.13"/>
</linearGradient>
<linearGradient id="paint11_linear_402_3966" x1="1101.5" y1="77.5" x2="1104.84" y2="707.761" gradientUnits="userSpaceOnUse">
<stop offset="0.0403666" stop-color="#4DABCE" stop-opacity="0.04"/>
<stop offset="0.264659" stop-color="#4DABCE"/>
<stop offset="0.498326" stop-color="#9E9B82" stop-opacity="0.97"/>
<stop offset="0.701569" stop-color="#E08F44" stop-opacity="0.79"/>
<stop offset="0.90625" stop-color="#E08F44" stop-opacity="0.13"/>
</linearGradient>
<linearGradient id="paint12_linear_402_3966" x1="1101.5" y1="77.5" x2="1104.84" y2="707.761" gradientUnits="userSpaceOnUse">
<stop offset="0.0403666" stop-color="#4DABCE" stop-opacity="0.04"/>
<stop offset="0.264659" stop-color="#4DABCE"/>
<stop offset="0.498326" stop-color="#9E9B82" stop-opacity="0.97"/>
<stop offset="0.701569" stop-color="#E08F44" stop-opacity="0.79"/>
<stop offset="0.90625" stop-color="#E08F44" stop-opacity="0.13"/>
</linearGradient>
<linearGradient id="paint13_linear_402_3966" x1="1101.5" y1="77.5" x2="1104.84" y2="707.761" gradientUnits="userSpaceOnUse">
<stop offset="0.0403666" stop-color="#4DABCE" stop-opacity="0.04"/>
<stop offset="0.264659" stop-color="#4DABCE"/>
<stop offset="0.498326" stop-color="#9E9B82" stop-opacity="0.97"/>
<stop offset="0.701569" stop-color="#E08F44" stop-opacity="0.79"/>
<stop offset="0.90625" stop-color="#E08F44" stop-opacity="0.13"/>
</linearGradient>
<linearGradient id="paint14_linear_402_3966" x1="1101.5" y1="77.5" x2="1104.84" y2="707.761" gradientUnits="userSpaceOnUse">
<stop offset="0.0403666" stop-color="#4DABCE" stop-opacity="0.04"/>
<stop offset="0.264659" stop-color="#4DABCE"/>
<stop offset="0.498326" stop-color="#9E9B82" stop-opacity="0.97"/>
<stop offset="0.701569" stop-color="#E08F44" stop-opacity="0.79"/>
<stop offset="0.90625" stop-color="#E08F44" stop-opacity="0.13"/>
</linearGradient>
<linearGradient id="paint15_linear_402_3966" x1="1101.5" y1="77.5" x2="1104.84" y2="707.761" gradientUnits="userSpaceOnUse">
<stop offset="0.0403666" stop-color="#4DABCE" stop-opacity="0.04"/>
<stop offset="0.264659" stop-color="#4DABCE"/>
<stop offset="0.498326" stop-color="#9E9B82" stop-opacity="0.97"/>
<stop offset="0.701569" stop-color="#E08F44" stop-opacity="0.79"/>
<stop offset="0.90625" stop-color="#E08F44" stop-opacity="0.13"/>
</linearGradient>
<linearGradient id="paint16_linear_402_3966" x1="1101.5" y1="77.5" x2="1104.84" y2="707.761" gradientUnits="userSpaceOnUse">
<stop offset="0.0403666" stop-color="#4DABCE" stop-opacity="0.04"/>
<stop offset="0.264659" stop-color="#4DABCE"/>
<stop offset="0.498326" stop-color="#9E9B82" stop-opacity="0.97"/>
<stop offset="0.701569" stop-color="#E08F44" stop-opacity="0.79"/>
<stop offset="0.90625" stop-color="#E08F44" stop-opacity="0.13"/>
</linearGradient>
<linearGradient id="paint17_linear_402_3966" x1="1101.5" y1="77.5" x2="1104.84" y2="707.761" gradientUnits="userSpaceOnUse">
<stop offset="0.0403666" stop-color="#4DABCE" stop-opacity="0.04"/>
<stop offset="0.264659" stop-color="#4DABCE"/>
<stop offset="0.498326" stop-color="#9E9B82" stop-opacity="0.97"/>
<stop offset="0.701569" stop-color="#E08F44" stop-opacity="0.79"/>
<stop offset="0.90625" stop-color="#E08F44" stop-opacity="0.13"/>
</linearGradient>
<linearGradient id="paint18_linear_402_3966" x1="1101.5" y1="77.5" x2="1104.84" y2="707.761" gradientUnits="userSpaceOnUse">
<stop offset="0.0403666" stop-color="#4DABCE" stop-opacity="0.04"/>
<stop offset="0.264659" stop-color="#4DABCE"/>
<stop offset="0.498326" stop-color="#9E9B82" stop-opacity="0.97"/>
<stop offset="0.701569" stop-color="#E08F44" stop-opacity="0.79"/>
<stop offset="0.90625" stop-color="#E08F44" stop-opacity="0.13"/>
</linearGradient>
<linearGradient id="paint19_linear_402_3966" x1="1101.5" y1="77.5" x2="1104.84" y2="707.761" gradientUnits="userSpaceOnUse">
<stop offset="0.0403666" stop-color="#4DABCE" stop-opacity="0.04"/>
<stop offset="0.264659" stop-color="#4DABCE"/>
<stop offset="0.498326" stop-color="#9E9B82" stop-opacity="0.97"/>
<stop offset="0.701569" stop-color="#E08F44" stop-opacity="0.79"/>
<stop offset="0.90625" stop-color="#E08F44" stop-opacity="0.13"/>
</linearGradient>
<linearGradient id="paint20_linear_402_3966" x1="1101.5" y1="77.5" x2="1104.84" y2="707.761" gradientUnits="userSpaceOnUse">
<stop offset="0.0403666" stop-color="#4DABCE" stop-opacity="0.04"/>
<stop offset="0.264659" stop-color="#4DABCE"/>
<stop offset="0.498326" stop-color="#9E9B82" stop-opacity="0.97"/>
<stop offset="0.701569" stop-color="#E08F44" stop-opacity="0.79"/>
<stop offset="0.90625" stop-color="#E08F44" stop-opacity="0.13"/>
</linearGradient>
<linearGradient id="paint21_linear_402_3966" x1="1101.5" y1="77.5" x2="1104.84" y2="707.761" gradientUnits="userSpaceOnUse">
<stop offset="0.0403666" stop-color="#4DABCE" stop-opacity="0.04"/>
<stop offset="0.264659" stop-color="#4DABCE"/>
<stop offset="0.498326" stop-color="#9E9B82" stop-opacity="0.97"/>
<stop offset="0.701569" stop-color="#E08F44" stop-opacity="0.79"/>
<stop offset="0.90625" stop-color="#E08F44" stop-opacity="0.13"/>
</linearGradient>
<linearGradient id="paint22_linear_402_3966" x1="1101.5" y1="77.5" x2="1104.84" y2="707.761" gradientUnits="userSpaceOnUse">
<stop offset="0.0403666" stop-color="#4DABCE" stop-opacity="0.04"/>
<stop offset="0.264659" stop-color="#4DABCE"/>
<stop offset="0.498326" stop-color="#9E9B82" stop-opacity="0.97"/>
<stop offset="0.701569" stop-color="#E08F44" stop-opacity="0.79"/>
<stop offset="0.90625" stop-color="#E08F44" stop-opacity="0.13"/>
</linearGradient>
<linearGradient id="paint23_linear_402_3966" x1="1101.5" y1="77.5" x2="1104.84" y2="707.761" gradientUnits="userSpaceOnUse">
<stop offset="0.0403666" stop-color="#4DABCE" stop-opacity="0.04"/>
<stop offset="0.264659" stop-color="#4DABCE"/>
<stop offset="0.498326" stop-color="#9E9B82" stop-opacity="0.97"/>
<stop offset="0.701569" stop-color="#E08F44" stop-opacity="0.79"/>
<stop offset="0.90625" stop-color="#E08F44" stop-opacity="0.13"/>
</linearGradient>
<linearGradient id="paint24_linear_402_3966" x1="1101.5" y1="77.5" x2="1104.84" y2="707.761" gradientUnits="userSpaceOnUse">
<stop offset="0.0403666" stop-color="#4DABCE" stop-opacity="0.04"/>
<stop offset="0.264659" stop-color="#4DABCE"/>
<stop offset="0.498326" stop-color="#9E9B82" stop-opacity="0.97"/>
<stop offset="0.701569" stop-color="#E08F44" stop-opacity="0.79"/>
<stop offset="0.90625" stop-color="#E08F44" stop-opacity="0.13"/>
</linearGradient>
<linearGradient id="paint25_linear_402_3966" x1="1101.5" y1="77.5" x2="1104.84" y2="707.761" gradientUnits="userSpaceOnUse">
<stop offset="0.0403666" stop-color="#4DABCE" stop-opacity="0.04"/>
<stop offset="0.264659" stop-color="#4DABCE"/>
<stop offset="0.498326" stop-color="#9E9B82" stop-opacity="0.97"/>
<stop offset="0.701569" stop-color="#E08F44" stop-opacity="0.79"/>
<stop offset="0.90625" stop-color="#E08F44" stop-opacity="0.13"/>
</linearGradient>
<linearGradient id="paint26_linear_402_3966" x1="1101.5" y1="77.5" x2="1104.84" y2="707.761" gradientUnits="userSpaceOnUse">
<stop offset="0.0403666" stop-color="#4DABCE" stop-opacity="0.04"/>
<stop offset="0.264659" stop-color="#4DABCE"/>
<stop offset="0.498326" stop-color="#9E9B82" stop-opacity="0.97"/>
<stop offset="0.701569" stop-color="#E08F44" stop-opacity="0.79"/>
<stop offset="0.90625" stop-color="#E08F44" stop-opacity="0.13"/>
</linearGradient>
<linearGradient id="paint27_linear_402_3966" x1="1101.5" y1="77.5" x2="1104.84" y2="707.761" gradientUnits="userSpaceOnUse">
<stop offset="0.0403666" stop-color="#4DABCE" stop-opacity="0.04"/>
<stop offset="0.264659" stop-color="#4DABCE"/>
<stop offset="0.498326" stop-color="#9E9B82" stop-opacity="0.97"/>
<stop offset="0.701569" stop-color="#E08F44" stop-opacity="0.79"/>
<stop offset="0.90625" stop-color="#E08F44" stop-opacity="0.13"/>
</linearGradient>
<linearGradient id="paint28_linear_402_3966" x1="1101.5" y1="77.5" x2="1104.84" y2="707.761" gradientUnits="userSpaceOnUse">
<stop offset="0.0403666" stop-color="#4DABCE" stop-opacity="0.04"/>
<stop offset="0.264659" stop-color="#4DABCE"/>
<stop offset="0.498326" stop-color="#9E9B82" stop-opacity="0.97"/>
<stop offset="0.701569" stop-color="#E08F44" stop-opacity="0.79"/>
<stop offset="0.90625" stop-color="#E08F44" stop-opacity="0.13"/>
</linearGradient>
<linearGradient id="paint29_linear_402_3966" x1="1101.5" y1="77.5" x2="1104.84" y2="707.761" gradientUnits="userSpaceOnUse">
<stop offset="0.0403666" stop-color="#4DABCE" stop-opacity="0.04"/>
<stop offset="0.264659" stop-color="#4DABCE"/>
<stop offset="0.498326" stop-color="#9E9B82" stop-opacity="0.97"/>
<stop offset="0.701569" stop-color="#E08F44" stop-opacity="0.79"/>
<stop offset="0.90625" stop-color="#E08F44" stop-opacity="0.13"/>
</linearGradient>
<linearGradient id="paint30_linear_402_3966" x1="1101.5" y1="77.5" x2="1104.84" y2="707.761" gradientUnits="userSpaceOnUse">
<stop offset="0.0403666" stop-color="#4DABCE" stop-opacity="0.04"/>
<stop offset="0.264659" stop-color="#4DABCE"/>
<stop offset="0.498326" stop-color="#9E9B82" stop-opacity="0.97"/>
<stop offset="0.701569" stop-color="#E08F44" stop-opacity="0.79"/>
<stop offset="0.90625" stop-color="#E08F44" stop-opacity="0.13"/>
</linearGradient>
<linearGradient id="paint31_linear_402_3966" x1="1101.5" y1="77.5" x2="1104.84" y2="707.761" gradientUnits="userSpaceOnUse">
<stop offset="0.0403666" stop-color="#4DABCE" stop-opacity="0.04"/>
<stop offset="0.264659" stop-color="#4DABCE"/>
<stop offset="0.498326" stop-color="#9E9B82" stop-opacity="0.97"/>
<stop offset="0.701569" stop-color="#E08F44" stop-opacity="0.79"/>
<stop offset="0.90625" stop-color="#E08F44" stop-opacity="0.13"/>
</linearGradient>
<linearGradient id="paint32_linear_402_3966" x1="1101.5" y1="77.5" x2="1104.84" y2="707.761" gradientUnits="userSpaceOnUse">
<stop offset="0.0403666" stop-color="#4DABCE" stop-opacity="0.04"/>
<stop offset="0.264659" stop-color="#4DABCE"/>
<stop offset="0.498326" stop-color="#9E9B82" stop-opacity="0.97"/>
<stop offset="0.701569" stop-color="#E08F44" stop-opacity="0.79"/>
<stop offset="0.90625" stop-color="#E08F44" stop-opacity="0.13"/>
</linearGradient>
<linearGradient id="paint33_linear_402_3966" x1="1101.5" y1="77.5" x2="1104.84" y2="707.761" gradientUnits="userSpaceOnUse">
<stop offset="0.0403666" stop-color="#4DABCE" stop-opacity="0.04"/>
<stop offset="0.264659" stop-color="#4DABCE"/>
<stop offset="0.498326" stop-color="#9E9B82" stop-opacity="0.97"/>
<stop offset="0.701569" stop-color="#E08F44" stop-opacity="0.79"/>
<stop offset="0.90625" stop-color="#E08F44" stop-opacity="0.13"/>
</linearGradient>
<linearGradient id="paint34_linear_402_3966" x1="1101.5" y1="77.5" x2="1104.84" y2="707.761" gradientUnits="userSpaceOnUse">
<stop offset="0.0403666" stop-color="#4DABCE" stop-opacity="0.04"/>
<stop offset="0.264659" stop-color="#4DABCE"/>
<stop offset="0.498326" stop-color="#9E9B82" stop-opacity="0.97"/>
<stop offset="0.701569" stop-color="#E08F44" stop-opacity="0.79"/>
<stop offset="0.90625" stop-color="#E08F44" stop-opacity="0.13"/>
</linearGradient>
<linearGradient id="paint35_linear_402_3966" x1="1101.5" y1="77.5" x2="1104.84" y2="707.761" gradientUnits="userSpaceOnUse">
<stop offset="0.0403666" stop-color="#4DABCE" stop-opacity="0.04"/>
<stop offset="0.264659" stop-color="#4DABCE"/>
<stop offset="0.498326" stop-color="#9E9B82" stop-opacity="0.97"/>
<stop offset="0.701569" stop-color="#E08F44" stop-opacity="0.79"/>
<stop offset="0.90625" stop-color="#E08F44" stop-opacity="0.13"/>
</linearGradient>
<linearGradient id="paint36_linear_402_3966" x1="1101.5" y1="77.5" x2="1104.84" y2="707.761" gradientUnits="userSpaceOnUse">
<stop offset="0.0403666" stop-color="#4DABCE" stop-opacity="0.04"/>
<stop offset="0.264659" stop-color="#4DABCE"/>
<stop offset="0.498326" stop-color="#9E9B82" stop-opacity="0.97"/>
<stop offset="0.701569" stop-color="#E08F44" stop-opacity="0.79"/>
<stop offset="0.90625" stop-color="#E08F44" stop-opacity="0.13"/>
</linearGradient>
<linearGradient id="paint37_linear_402_3966" x1="1101.5" y1="77.5" x2="1104.84" y2="707.761" gradientUnits="userSpaceOnUse">
<stop offset="0.0403666" stop-color="#4DABCE" stop-opacity="0.04"/>
<stop offset="0.264659" stop-color="#4DABCE"/>
<stop offset="0.498326" stop-color="#9E9B82" stop-opacity="0.97"/>
<stop offset="0.701569" stop-color="#E08F44" stop-opacity="0.79"/>
<stop offset="0.90625" stop-color="#E08F44" stop-opacity="0.13"/>
</linearGradient>
<linearGradient id="paint38_linear_402_3966" x1="1101.5" y1="77.5" x2="1104.84" y2="707.761" gradientUnits="userSpaceOnUse">
<stop offset="0.0403666" stop-color="#4DABCE" stop-opacity="0.04"/>
<stop offset="0.264659" stop-color="#4DABCE"/>
<stop offset="0.498326" stop-color="#9E9B82" stop-opacity="0.97"/>
<stop offset="0.701569" stop-color="#E08F44" stop-opacity="0.79"/>
<stop offset="0.90625" stop-color="#E08F44" stop-opacity="0.13"/>
</linearGradient>
<linearGradient id="paint39_linear_402_3966" x1="1101.5" y1="77.5" x2="1104.84" y2="707.761" gradientUnits="userSpaceOnUse">
<stop offset="0.0403666" stop-color="#4DABCE" stop-opacity="0.04"/>
<stop offset="0.264659" stop-color="#4DABCE"/>
<stop offset="0.498326" stop-color="#9E9B82" stop-opacity="0.97"/>
<stop offset="0.701569" stop-color="#E08F44" stop-opacity="0.79"/>
<stop offset="0.90625" stop-color="#E08F44" stop-opacity="0.13"/>
</linearGradient>
<linearGradient id="paint40_linear_402_3966" x1="1101.5" y1="77.5" x2="1104.84" y2="707.761" gradientUnits="userSpaceOnUse">
<stop offset="0.0403666" stop-color="#4DABCE" stop-opacity="0.04"/>
<stop offset="0.264659" stop-color="#4DABCE"/>
<stop offset="0.498326" stop-color="#9E9B82" stop-opacity="0.97"/>
<stop offset="0.701569" stop-color="#E08F44" stop-opacity="0.79"/>
<stop offset="0.90625" stop-color="#E08F44" stop-opacity="0.13"/>
</linearGradient>
<linearGradient id="paint41_linear_402_3966" x1="1101.5" y1="77.5" x2="1104.84" y2="707.761" gradientUnits="userSpaceOnUse">
<stop offset="0.0403666" stop-color="#4DABCE" stop-opacity="0.04"/>
<stop offset="0.264659" stop-color="#4DABCE"/>
<stop offset="0.498326" stop-color="#9E9B82" stop-opacity="0.97"/>
<stop offset="0.701569" stop-color="#E08F44" stop-opacity="0.79"/>
<stop offset="0.90625" stop-color="#E08F44" stop-opacity="0.13"/>
</linearGradient>
<linearGradient id="paint42_linear_402_3966" x1="1101.5" y1="77.5" x2="1104.84" y2="707.761" gradientUnits="userSpaceOnUse">
<stop offset="0.0403666" stop-color="#4DABCE" stop-opacity="0.04"/>
<stop offset="0.264659" stop-color="#4DABCE"/>
<stop offset="0.498326" stop-color="#9E9B82" stop-opacity="0.97"/>
<stop offset="0.701569" stop-color="#E08F44" stop-opacity="0.79"/>
<stop offset="0.90625" stop-color="#E08F44" stop-opacity="0.13"/>
</linearGradient>
<linearGradient id="paint43_linear_402_3966" x1="1101.5" y1="77.5" x2="1104.84" y2="707.761" gradientUnits="userSpaceOnUse">
<stop offset="0.0403666" stop-color="#4DABCE" stop-opacity="0.04"/>
<stop offset="0.264659" stop-color="#4DABCE"/>
<stop offset="0.498326" stop-color="#9E9B82" stop-opacity="0.97"/>
<stop offset="0.701569" stop-color="#E08F44" stop-opacity="0.79"/>
<stop offset="0.90625" stop-color="#E08F44" stop-opacity="0.13"/>
</linearGradient>
<linearGradient id="paint44_linear_402_3966" x1="1101.5" y1="77.5" x2="1104.84" y2="707.761" gradientUnits="userSpaceOnUse">
<stop offset="0.0403666" stop-color="#4DABCE" stop-opacity="0.04"/>
<stop offset="0.264659" stop-color="#4DABCE"/>
<stop offset="0.498326" stop-color="#9E9B82" stop-opacity="0.97"/>
<stop offset="0.701569" stop-color="#E08F44" stop-opacity="0.79"/>
<stop offset="0.90625" stop-color="#E08F44" stop-opacity="0.13"/>
</linearGradient>
<linearGradient id="paint45_linear_402_3966" x1="1101.5" y1="77.5" x2="1104.84" y2="707.761" gradientUnits="userSpaceOnUse">
<stop offset="0.0403666" stop-color="#4DABCE" stop-opacity="0.04"/>
<stop offset="0.264659" stop-color="#4DABCE"/>
<stop offset="0.498326" stop-color="#9E9B82" stop-opacity="0.97"/>
<stop offset="0.701569" stop-color="#E08F44" stop-opacity="0.79"/>
<stop offset="0.90625" stop-color="#E08F44" stop-opacity="0.13"/>
</linearGradient>
<linearGradient id="paint46_linear_402_3966" x1="1101.5" y1="77.5" x2="1104.84" y2="707.761" gradientUnits="userSpaceOnUse">
<stop offset="0.0403666" stop-color="#4DABCE" stop-opacity="0.04"/>
<stop offset="0.264659" stop-color="#4DABCE"/>
<stop offset="0.498326" stop-color="#9E9B82" stop-opacity="0.97"/>
<stop offset="0.701569" stop-color="#E08F44" stop-opacity="0.79"/>
<stop offset="0.90625" stop-color="#E08F44" stop-opacity="0.13"/>
</linearGradient>
<linearGradient id="paint47_linear_402_3966" x1="1101.5" y1="77.5" x2="1104.84" y2="707.761" gradientUnits="userSpaceOnUse">
<stop offset="0.0403666" stop-color="#4DABCE" stop-opacity="0.04"/>
<stop offset="0.264659" stop-color="#4DABCE"/>
<stop offset="0.498326" stop-color="#9E9B82" stop-opacity="0.97"/>
<stop offset="0.701569" stop-color="#E08F44" stop-opacity="0.79"/>
<stop offset="0.90625" stop-color="#E08F44" stop-opacity="0.13"/>
</linearGradient>
<linearGradient id="paint48_linear_402_3966" x1="1101.5" y1="77.5" x2="1104.84" y2="707.761" gradientUnits="userSpaceOnUse">
<stop offset="0.0403666" stop-color="#4DABCE" stop-opacity="0.04"/>
<stop offset="0.264659" stop-color="#4DABCE"/>
<stop offset="0.498326" stop-color="#9E9B82" stop-opacity="0.97"/>
<stop offset="0.701569" stop-color="#E08F44" stop-opacity="0.79"/>
<stop offset="0.90625" stop-color="#E08F44" stop-opacity="0.13"/>
</linearGradient>
<linearGradient id="paint49_linear_402_3966" x1="1101.5" y1="77.5" x2="1104.84" y2="707.761" gradientUnits="userSpaceOnUse">
<stop offset="0.0403666" stop-color="#4DABCE" stop-opacity="0.04"/>
<stop offset="0.264659" stop-color="#4DABCE"/>
<stop offset="0.498326" stop-color="#9E9B82" stop-opacity="0.97"/>
<stop offset="0.701569" stop-color="#E08F44" stop-opacity="0.79"/>
<stop offset="0.90625" stop-color="#E08F44" stop-opacity="0.13"/>
</linearGradient>
<linearGradient id="paint50_linear_402_3966" x1="1101.5" y1="77.5" x2="1104.84" y2="707.761" gradientUnits="userSpaceOnUse">
<stop offset="0.0403666" stop-color="#4DABCE" stop-opacity="0.04"/>
<stop offset="0.264659" stop-color="#4DABCE"/>
<stop offset="0.498326" stop-color="#9E9B82" stop-opacity="0.97"/>
<stop offset="0.701569" stop-color="#E08F44" stop-opacity="0.79"/>
<stop offset="0.90625" stop-color="#E08F44" stop-opacity="0.13"/>
</linearGradient>
<linearGradient id="paint51_linear_402_3966" x1="1101.5" y1="77.5" x2="1104.84" y2="707.761" gradientUnits="userSpaceOnUse">
<stop offset="0.0403666" stop-color="#4DABCE" stop-opacity="0.04"/>
<stop offset="0.264659" stop-color="#4DABCE"/>
<stop offset="0.498326" stop-color="#9E9B82" stop-opacity="0.97"/>
<stop offset="0.701569" stop-color="#E08F44" stop-opacity="0.79"/>
<stop offset="0.90625" stop-color="#E08F44" stop-opacity="0.13"/>
</linearGradient>
<linearGradient id="paint52_linear_402_3966" x1="1101.5" y1="77.5" x2="1104.84" y2="707.761" gradientUnits="userSpaceOnUse">
<stop offset="0.0403666" stop-color="#4DABCE" stop-opacity="0.04"/>
<stop offset="0.264659" stop-color="#4DABCE"/>
<stop offset="0.498326" stop-color="#9E9B82" stop-opacity="0.97"/>
<stop offset="0.701569" stop-color="#E08F44" stop-opacity="0.79"/>
<stop offset="0.90625" stop-color="#E08F44" stop-opacity="0.13"/>
</linearGradient>
<linearGradient id="paint53_linear_402_3966" x1="1101.5" y1="77.5" x2="1104.84" y2="707.761" gradientUnits="userSpaceOnUse">
<stop offset="0.0403666" stop-color="#4DABCE" stop-opacity="0.04"/>
<stop offset="0.264659" stop-color="#4DABCE"/>
<stop offset="0.498326" stop-color="#9E9B82" stop-opacity="0.97"/>
<stop offset="0.701569" stop-color="#E08F44" stop-opacity="0.79"/>
<stop offset="0.90625" stop-color="#E08F44" stop-opacity="0.13"/>
</linearGradient>
<linearGradient id="paint54_linear_402_3966" x1="1101.5" y1="77.5" x2="1104.84" y2="707.761" gradientUnits="userSpaceOnUse">
<stop offset="0.0403666" stop-color="#4DABCE" stop-opacity="0.04"/>
<stop offset="0.264659" stop-color="#4DABCE"/>
<stop offset="0.498326" stop-color="#9E9B82" stop-opacity="0.97"/>
<stop offset="0.701569" stop-color="#E08F44" stop-opacity="0.79"/>
<stop offset="0.90625" stop-color="#E08F44" stop-opacity="0.13"/>
</linearGradient>
<linearGradient id="paint55_linear_402_3966" x1="1101.5" y1="77.5" x2="1104.84" y2="707.761" gradientUnits="userSpaceOnUse">
<stop offset="0.0403666" stop-color="#4DABCE" stop-opacity="0.04"/>
<stop offset="0.264659" stop-color="#4DABCE"/>
<stop offset="0.498326" stop-color="#9E9B82" stop-opacity="0.97"/>
<stop offset="0.701569" stop-color="#E08F44" stop-opacity="0.79"/>
<stop offset="0.90625" stop-color="#E08F44" stop-opacity="0.13"/>
</linearGradient>
<linearGradient id="paint56_linear_402_3966" x1="1101.5" y1="77.5" x2="1104.84" y2="707.761" gradientUnits="userSpaceOnUse">
<stop offset="0.0403666" stop-color="#4DABCE" stop-opacity="0.04"/>
<stop offset="0.264659" stop-color="#4DABCE"/>
<stop offset="0.498326" stop-color="#9E9B82" stop-opacity="0.97"/>
<stop offset="0.701569" stop-color="#E08F44" stop-opacity="0.79"/>
<stop offset="0.90625" stop-color="#E08F44" stop-opacity="0.13"/>
</linearGradient>
<linearGradient id="paint57_linear_402_3966" x1="1101.5" y1="77.5" x2="1104.84" y2="707.761" gradientUnits="userSpaceOnUse">
<stop offset="0.0403666" stop-color="#4DABCE" stop-opacity="0.04"/>
<stop offset="0.264659" stop-color="#4DABCE"/>
<stop offset="0.498326" stop-color="#9E9B82" stop-opacity="0.97"/>
<stop offset="0.701569" stop-color="#E08F44" stop-opacity="0.79"/>
<stop offset="0.90625" stop-color="#E08F44" stop-opacity="0.13"/>
</linearGradient>
<linearGradient id="paint58_linear_402_3966" x1="1101.5" y1="77.5" x2="1104.84" y2="707.761" gradientUnits="userSpaceOnUse">
<stop offset="0.0403666" stop-color="#4DABCE" stop-opacity="0.04"/>
<stop offset="0.264659" stop-color="#4DABCE"/>
<stop offset="0.498326" stop-color="#9E9B82" stop-opacity="0.97"/>
<stop offset="0.701569" stop-color="#E08F44" stop-opacity="0.79"/>
<stop offset="0.90625" stop-color="#E08F44" stop-opacity="0.13"/>
</linearGradient>
<linearGradient id="paint59_linear_402_3966" x1="1101.5" y1="77.5" x2="1104.84" y2="707.761" gradientUnits="userSpaceOnUse">
<stop offset="0.0403666" stop-color="#4DABCE" stop-opacity="0.04"/>
<stop offset="0.264659" stop-color="#4DABCE"/>
<stop offset="0.498326" stop-color="#9E9B82" stop-opacity="0.97"/>
<stop offset="0.701569" stop-color="#E08F44" stop-opacity="0.79"/>
<stop offset="0.90625" stop-color="#E08F44" stop-opacity="0.13"/>
</linearGradient>
<linearGradient id="paint60_linear_402_3966" x1="1101.5" y1="77.5" x2="1104.84" y2="707.761" gradientUnits="userSpaceOnUse">
<stop offset="0.0403666" stop-color="#4DABCE" stop-opacity="0.04"/>
<stop offset="0.264659" stop-color="#4DABCE"/>
<stop offset="0.498326" stop-color="#9E9B82" stop-opacity="0.97"/>
<stop offset="0.701569" stop-color="#E08F44" stop-opacity="0.79"/>
<stop offset="0.90625" stop-color="#E08F44" stop-opacity="0.13"/>
</linearGradient>
<linearGradient id="paint61_linear_402_3966" x1="1101.5" y1="77.5" x2="1104.84" y2="707.761" gradientUnits="userSpaceOnUse">
<stop offset="0.0403666" stop-color="#4DABCE" stop-opacity="0.04"/>
<stop offset="0.264659" stop-color="#4DABCE"/>
<stop offset="0.498326" stop-color="#9E9B82" stop-opacity="0.97"/>
<stop offset="0.701569" stop-color="#E08F44" stop-opacity="0.79"/>
<stop offset="0.90625" stop-color="#E08F44" stop-opacity="0.13"/>
</linearGradient>
<linearGradient id="paint62_linear_402_3966" x1="1101.5" y1="77.5" x2="1104.84" y2="707.761" gradientUnits="userSpaceOnUse">
<stop offset="0.0403666" stop-color="#4DABCE" stop-opacity="0.04"/>
<stop offset="0.264659" stop-color="#4DABCE"/>
<stop offset="0.498326" stop-color="#9E9B82" stop-opacity="0.97"/>
<stop offset="0.701569" stop-color="#E08F44" stop-opacity="0.79"/>
<stop offset="0.90625" stop-color="#E08F44" stop-opacity="0.13"/>
</linearGradient>
<linearGradient id="paint63_linear_402_3966" x1="1101.5" y1="77.5" x2="1104.84" y2="707.761" gradientUnits="userSpaceOnUse">
<stop offset="0.0403666" stop-color="#4DABCE" stop-opacity="0.04"/>
<stop offset="0.264659" stop-color="#4DABCE"/>
<stop offset="0.498326" stop-color="#9E9B82" stop-opacity="0.97"/>
<stop offset="0.701569" stop-color="#E08F44" stop-opacity="0.79"/>
<stop offset="0.90625" stop-color="#E08F44" stop-opacity="0.13"/>
</linearGradient>
<linearGradient id="paint64_linear_402_3966" x1="1101.5" y1="77.5" x2="1104.84" y2="707.761" gradientUnits="userSpaceOnUse">
<stop offset="0.0403666" stop-color="#4DABCE" stop-opacity="0.04"/>
<stop offset="0.264659" stop-color="#4DABCE"/>
<stop offset="0.498326" stop-color="#9E9B82" stop-opacity="0.97"/>
<stop offset="0.701569" stop-color="#E08F44" stop-opacity="0.79"/>
<stop offset="0.90625" stop-color="#E08F44" stop-opacity="0.13"/>
</linearGradient>
</defs>
</svg>
