<svg width="14" height="14" viewBox="0 0 14 14" fill="none" xmlns="http://www.w3.org/2000/svg">
<path d="M12.4635 10.2884C12.0254 9.84999 11.5136 9.4922 10.9515 9.23139C11.7442 8.58916 12.25 7.60919 12.25 6.51022C12.25 4.57128 10.633 2.98057 8.69399 3.01032C6.78475 3.04007 5.24651 4.59578 5.24651 6.51022C5.24651 7.60919 5.75401 8.58916 6.545 9.23139C5.98274 9.49201 5.47089 9.84982 5.03301 10.2884C4.07752 11.2456 3.53502 12.509 3.50002 13.8565C3.49955 13.8752 3.50283 13.8938 3.50966 13.9112C3.51648 13.9285 3.52672 13.9444 3.53977 13.9578C3.55282 13.9711 3.56841 13.9818 3.58562 13.989C3.60284 13.9963 3.62134 14 3.64002 14H4.62002C4.69526 14 4.75826 13.9405 4.76001 13.8653C4.79326 12.8503 5.20451 11.9001 5.92726 11.1791C6.2971 10.8073 6.73701 10.5125 7.22153 10.3119C7.70605 10.1112 8.22556 10.0087 8.74999 10.0101C9.81573 10.0101 10.8185 10.4249 11.5727 11.1791C12.2937 11.9001 12.705 12.8503 12.74 13.8653C12.7417 13.9405 12.8047 14 12.88 14H13.86C13.8786 14 13.8971 13.9963 13.9144 13.989C13.9316 13.9818 13.9472 13.9711 13.9602 13.9578C13.9733 13.9444 13.9835 13.9285 13.9903 13.9112C13.9971 13.8938 14.0004 13.8752 14 13.8565C13.965 12.509 13.4225 11.2456 12.4635 10.2884ZM8.74999 8.75015C8.15149 8.75015 7.588 8.51741 7.16625 8.09392C6.95459 7.88394 6.7874 7.63348 6.67465 7.35747C6.56191 7.08147 6.50591 6.78559 6.51 6.48747C6.51525 5.91349 6.7445 5.35875 7.14525 4.94752C7.56525 4.51703 8.12699 4.27729 8.72724 4.27029C9.32049 4.26504 9.89623 4.49603 10.3197 4.91077C10.7537 5.336 10.9917 5.90474 10.9917 6.51022C10.9917 7.1087 10.759 7.67044 10.3355 8.09392C10.1277 8.30268 9.8806 8.46817 9.60845 8.58081C9.33631 8.69345 9.04453 8.75101 8.74999 8.75015ZM4.36627 6.97221C4.35052 6.81996 4.34177 6.66597 4.34177 6.51022C4.34177 6.23198 4.36802 5.96074 4.41702 5.69649C4.42927 5.6335 4.39602 5.56875 4.33827 5.5425C4.10027 5.43575 3.88152 5.28876 3.69252 5.10326C3.46982 4.88733 3.29457 4.62735 3.17796 4.3399C3.06136 4.05246 3.00595 3.74387 3.01527 3.43381C3.03102 2.87208 3.25677 2.33834 3.65052 1.93585C4.08277 1.49312 4.66376 1.25162 5.28151 1.25862C5.83976 1.26387 6.37875 1.47912 6.7865 1.86061C6.92475 1.9901 7.04375 2.1336 7.1435 2.28759C7.1785 2.34184 7.24675 2.36459 7.30625 2.34359C7.61425 2.23685 7.93974 2.1616 8.27399 2.1266C8.37199 2.1161 8.42799 2.0111 8.38424 1.9236C7.81549 0.798387 6.6535 0.02141 5.30951 0.000410603C3.36877 -0.0293385 1.75178 1.56137 1.75178 3.49856C1.75178 4.59753 2.25753 5.5775 3.05027 6.21973C2.49378 6.47697 1.98103 6.83221 1.53653 7.2767C0.57754 8.23392 0.0350435 9.49738 4.37602e-05 10.8466C-0.000423321 10.8653 0.00285271 10.8839 0.0096789 10.9012C0.0165051 10.9186 0.0267433 10.9345 0.0397902 10.9479C0.0528371 10.9612 0.068429 10.9719 0.0856467 10.9791C0.102864 10.9864 0.12136 10.9901 0.140043 10.9901H1.12179C1.19704 10.9901 1.26004 10.9306 1.26179 10.8553C1.29504 9.84037 1.70628 8.89015 2.42903 8.16917C2.94353 7.65469 3.57352 7.2977 4.26127 7.12445C4.32952 7.10695 4.37502 7.0422 4.36627 6.97221Z" fill="white"/>
</svg>
