<svg width="36" height="31" viewBox="0 0 36 31" fill="none" xmlns="http://www.w3.org/2000/svg">
<path d="M36 3.83125C34.6761 4.4326 33.2539 4.83892 31.7588 5.02257C33.3015 4.07633 34.4557 2.58706 35.0059 0.832639C33.5565 1.71514 31.9702 2.33633 30.316 2.66919C29.2036 1.45165 27.7302 0.644638 26.1245 0.373459C24.5189 0.10228 22.8708 0.382101 21.4361 1.16948C20.0015 1.95686 18.8606 3.20774 18.1905 4.72792C17.5204 6.2481 17.3587 7.95252 17.7305 9.57657C14.7937 9.42541 11.9207 8.64293 9.29795 7.27991C6.67524 5.91689 4.36141 4.00379 2.50665 1.66477C1.87246 2.78621 1.5078 4.08642 1.5078 5.47115C1.50709 6.71772 1.80655 7.94519 2.37962 9.04467C2.95269 10.1441 3.78163 11.0816 4.79292 11.7739C3.6201 11.7357 2.47315 11.4108 1.44755 10.8264V10.9239C1.44743 12.6723 2.0374 14.3668 3.11735 15.7201C4.1973 17.0733 5.70072 18.0018 7.3725 18.3481C6.28452 18.65 5.14385 18.6944 4.03664 18.4781C4.50832 19.9825 5.4271 21.298 6.66437 22.2405C7.90164 23.183 9.39545 23.7053 10.9367 23.7343C8.32036 25.8396 5.08922 26.9817 1.76306 26.9767C1.17386 26.9768 0.585165 26.9415 0 26.871C3.37625 29.0963 7.30645 30.2773 11.3204 30.2727C24.908 30.2727 32.3359 18.7366 32.3359 8.73143C32.3359 8.40637 32.328 8.07807 32.3138 7.75302C33.7586 6.68193 35.0058 5.35558 35.9968 3.83613L36 3.83125Z" fill="white"/>
</svg>
