<svg width="106" height="844" viewBox="0 0 106 844" fill="none" xmlns="http://www.w3.org/2000/svg">
<path d="M100.851 721.505L12.461 833.296C12.9643 834.248 13.25 835.336 13.25 836.492C13.25 840.218 10.2839 843.238 6.625 843.238C5.99362 843.238 5.38287 843.148 4.80444 842.98L4.66094 843.162C3.89362 844.132 2.50307 844.282 1.55507 843.496C0.620613 842.722 0.464958 841.328 1.19564 840.359C0.442169 839.264 0 837.931 0 836.492C0 832.766 2.96611 829.746 6.625 829.746C7.5291 829.746 8.3909 829.931 9.17611 830.264L96.427 719.913L96.3072 692.967C93.1932 692.018 90.9224 689.065 90.9224 685.569L90.9224 641.042C90.9224 637.645 93.0659 634.761 96.0438 633.73L95.4273 495.098C92.971 493.876 91.2778 491.298 91.2778 488.315L91.2778 330.065C91.2778 327.039 93.02 324.43 95.5335 323.231L96.0641 204.574C93.0757 203.549 90.9224 200.659 90.9224 197.255V152.728C90.9224 149.224 93.2038 146.265 96.329 145.323L96.427 123.419L9.17162 13.6742C8.38762 14.0051 7.52737 14.1877 6.625 14.1877C2.96611 14.1877 0 11.1842 0 7.47913C0 6.05029 0.441124 4.72583 1.19299 3.6377C0.466942 2.67102 0.620705 1.28204 1.55041 0.507446C2.49632 -0.280762 3.88726 -0.134644 4.65716 0.833679L4.8097 1.02557C5.38659 0.859558 5.99554 0.77063 6.625 0.77063C10.2839 0.77063 13.25 3.77411 13.25 7.47913C13.25 8.62695 12.9653 9.70746 12.4636 10.6522L100.851 121.821L100.746 145.371C103.792 146.362 106 149.281 106 152.728V197.255C106 200.801 103.663 203.789 100.48 204.693L99.9528 322.649C103.391 323.283 106 326.362 106 330.065L106 488.315C106 492.056 103.338 495.16 99.8469 495.75L100.46 633.598C103.653 634.495 106 637.488 106 641.042L106 685.569C106 689.024 103.782 691.949 100.724 692.933L100.851 721.505Z" fill="white"/>
</svg>
