<svg width="106" height="844" viewBox="0 0 106 844" fill="none" xmlns="http://www.w3.org/2000/svg">
<path d="M5.14922 122.495L93.539 10.7036C93.0357 9.75244 92.75 8.66417 92.75 7.50796C92.75 3.78229 95.7161 0.762036 99.375 0.762036C100.006 0.762036 100.617 0.851969 101.196 1.01994L101.339 0.838461C102.106 -0.132022 103.497 -0.281958 104.445 0.503571C105.379 1.27788 105.535 2.67211 104.804 3.64127C105.558 4.73619 106 6.06949 106 7.50796C106 11.2336 103.034 14.2539 99.375 14.2539C98.4709 14.2539 97.6091 14.0695 96.8239 13.7356L9.57301 124.087L9.69283 151.033C12.8068 151.982 15.0776 154.935 15.0776 158.431V202.958C15.0776 206.355 12.9341 209.239 9.95625 210.27L10.5727 348.902C13.029 350.124 14.7222 352.702 14.7222 355.685V513.935C14.7222 516.961 12.98 519.57 10.4665 520.769L9.93593 639.426C12.9243 640.451 15.0776 643.341 15.0776 646.745V691.272C15.0776 694.776 12.7962 697.735 9.67099 698.677L9.57304 720.581L96.8284 830.326C97.6124 829.995 98.4726 829.812 99.375 829.812C103.034 829.812 106 832.816 106 836.521C106 837.95 105.559 839.274 104.807 840.362C105.533 841.329 105.379 842.718 104.45 843.493C103.504 844.281 102.113 844.135 101.343 843.166L101.19 842.974C100.613 843.14 100.004 843.229 99.375 843.229C95.7161 843.229 92.75 840.226 92.75 836.521C92.75 835.373 93.0347 834.293 93.5364 833.348L5.14918 722.179L5.25449 698.629C2.20763 697.638 0 694.719 0 691.272V646.745C0 643.199 2.3366 640.211 5.51975 639.307L6.0472 521.351C2.60868 520.717 0 517.638 0 513.935V355.685C0 351.944 2.66238 348.84 6.1531 348.25L5.54012 210.402C2.34657 209.505 0 206.512 0 202.958V158.431C0 154.976 2.21816 152.051 5.27627 151.067L5.14922 122.495Z" fill="white"/>
</svg>
