<svg width="38" height="40" viewBox="0 0 38 40" fill="none" xmlns="http://www.w3.org/2000/svg">
<path d="M33.1111 12.2222V5.41667C33.1111 3.80584 31.6602 2.5 29.8704 2.5H2V37.5H29.8704C31.6602 37.5 33.1111 36.1942 33.1111 34.5833V27.7778" stroke="white" stroke-width="3.25" stroke-linejoin="round"/>
<path d="M37 14.0979C37 12.3628 35.6761 10.9562 34.0429 10.9562H27.3484H17.4914V27.7121H34.0429C35.6761 27.7121 37 26.3055 37 24.5704V14.0979Z" fill="#00CDDF"/>
<path d="M16.2593 10.9562H27.3484H34.0429C35.6761 10.9562 37 12.3628 37 14.0979V24.5704C37 26.3055 35.6761 27.7121 34.0429 27.7121H16.3628M17.4914 28.7502V10.0835" stroke="white" stroke-width="2" stroke-linejoin="round"/>
<rect x="21.4443" y="16.5" width="5.18518" height="7.29167" fill="white"/>
</svg>
