<svg width="12" height="12" viewBox="0 0 12 12" fill="none" xmlns="http://www.w3.org/2000/svg">
<path fill-rule="evenodd" clip-rule="evenodd" d="M1.46332 0.25108C1.12855 -0.0836935 0.585843 -0.0836935 0.25108 0.25108C-0.0836825 0.585854 -0.0836935 1.12856 0.25108 1.46332L4.78781 6.00005L0.25108 10.5368C-0.0836935 10.8716 -0.0836935 11.4143 0.25108 11.749C0.585854 12.0837 1.12856 12.0837 1.46332 11.749L6.00005 7.2123L10.5368 11.749C10.8716 12.0837 11.4143 12.0837 11.749 11.749C12.0837 11.4143 12.0837 10.8715 11.749 10.5368L7.2123 6.00005L11.749 1.46332C12.0837 1.12855 12.0837 0.585843 11.749 0.25108C11.4143 -0.0836935 10.8715 -0.0836935 10.5368 0.25108L6.00005 4.78781L1.46332 0.25108Z" fill="black"/>
</svg>
