<?xml version="1.0" standalone="no"?>
<!DOCTYPE svg PUBLIC "-//W3C//DTD SVG 20010904//EN"
 "http://www.w3.org/TR/2001/REC-SVG-20010904/DTD/svg10.dtd">
<svg version="1.0" xmlns="http://www.w3.org/2000/svg"
 width="90.000000pt" height="90.000000pt" viewBox="0 0 90.000000 90.000000"
 preserveAspectRatio="xMidYMid meet">
<metadata>
Created by potrace 1.14, written by Peter Selinger 2001-2017
</metadata>
<g transform="translate(0.000000,90.000000) scale(0.100000,-0.100000)"
fill="#000000" stroke="none">
<path d="M9 803 c0 -10 -1 -44 -2 -75 l-2 -58 75 0 76 0 -1 73 0 72 -73 3
c-63 3 -72 1 -73 -15z"/>
<path d="M453 745 l1 -75 148 0 148 0 0 -110 c0 -123 -9 -112 85 -112 25 0 50
1 55 1 6 1 10 70 10 186 l0 185 -224 0 -223 0 0 -75z"/>
<path d="M159 668 c-1 -2 -2 -135 -3 -295 -2 -200 1 -294 8 -295 6 -1 108 -2
226 -3 l215 -1 -2 155 c-1 86 -2 170 -2 187 l-1 31 -67 -2 c-38 -1 -71 -2 -75
-3 -3 -1 -6 -41 -6 -89 0 -144 8 -130 -69 -127 -38 1 -70 3 -73 3 -3 1 -5 94
-5 209 1 114 -1 213 -3 220 -3 8 -27 12 -73 12 -38 0 -70 -1 -70 -2z"/>
</g>
</svg>
